<svg width="15" height="15" viewBox="0 0 15 15" fill="none" xmlns="http://www.w3.org/2000/svg">
<path d="M14.4643 8.82568H13.2942L11.1621 12.5414H13.5757L13.5726 13.7806L14.4515 13.7829L14.4546 12.5414H14.9993V11.6625H14.457L14.4643 8.82568ZM13.5781 11.6625H12.6798L13.5821 10.09L13.5781 11.6625Z" fill="#AAAAAA"/>
<path d="M10.7785 11.5677C11.0508 11.1787 11.2491 10.7631 11.3017 10.2955C11.3017 9.49041 10.6467 8.83539 9.84162 8.83539C9.1455 8.83539 8.54295 9.33062 8.40892 10.0129L8.32422 10.4442L9.18666 10.6136L9.27136 10.1823C9.32462 9.91114 9.56447 9.71426 9.84162 9.71426C10.154 9.71426 10.4096 9.962 10.4223 10.2713C10.3633 10.565 10.2326 10.8149 10.0584 11.0637C9.09704 12.4373 8.67663 12.8872 8.67329 12.8908L8.55262 13.0174L8.54986 13.7642L11.4694 13.7731L11.4721 12.8942L9.81145 12.8892C10.0443 12.5892 10.3632 12.1611 10.7785 11.5677Z" fill="#AAAAAA"/>
<path d="M12.3363 7.06052C12.1266 4.7328 10.2672 2.87377 7.93949 2.664V3.55955H7.06059V2.66412C4.73298 2.87391 2.87397 4.73292 2.66418 7.06052H3.55961V7.93943H2.66406C2.87383 10.2671 4.73286 12.1265 7.06059 12.3362V11.4404H7.93949V8.74662C7.80191 8.79525 7.65408 8.822 7.50004 8.822C7.29572 8.822 7.10213 8.77536 6.92922 8.69227L6.04076 9.58073L5.41929 8.95926L6.30774 8.0708C6.22463 7.89792 6.17802 7.70429 6.17802 7.49998C6.17802 6.92506 6.54704 6.43492 7.06059 6.25334V4.85227H7.93949V6.25334C8.45304 6.43492 8.82206 6.92503 8.82206 7.49998C8.82206 7.65402 8.79531 7.80185 8.74668 7.93943H11.4405V7.06052H12.3363Z" fill="#AAAAAA"/>
<path d="M7.49976 7.94312C7.74448 7.94312 7.94287 7.74473 7.94287 7.5C7.94287 7.25527 7.74448 7.05688 7.49976 7.05688C7.25503 7.05688 7.05664 7.25527 7.05664 7.5C7.05664 7.74473 7.25503 7.94312 7.49976 7.94312Z" fill="#AAAAAA"/>
<path d="M12.8033 2.19668C11.3867 0.780117 9.50332 0 7.5 0C5.49668 0 3.61327 0.780117 2.19671 2.19668C0.780117 3.61327 0 5.49668 0 7.5C0 9.50332 0.780117 11.3867 2.19671 12.8033C3.61327 14.2199 5.49668 15 7.5 15H7.93945V13.2349H7.5C4.33778 13.2349 1.76514 10.6622 1.76514 7.5C1.76514 4.33778 4.33778 1.76514 7.5 1.76514C10.6622 1.76514 13.2349 4.33778 13.2349 7.5V7.93945H15V7.5C15 5.49668 14.2199 3.61327 12.8033 2.19668Z" fill="#AAAAAA"/>
</svg>
