<svg width="20" height="20" viewBox="0 0 20 20" fill="none" xmlns="http://www.w3.org/2000/svg">
<g clip-path="url(#clip0)">
<path d="M17.8159 14.0942C16.5559 13.0292 15.8334 11.4725 15.8334 9.82333V7.49999C15.8334 4.56749 13.6551 2.13999 10.8334 1.73333V0.833326C10.8334 0.372492 10.4601 -7.62939e-06 10.0001 -7.62939e-06C9.54008 -7.62939e-06 9.16675 0.372492 9.16675 0.833326V1.73333C6.34425 2.13999 4.16675 4.56749 4.16675 7.49999V9.82333C4.16675 11.4725 3.44425 13.0292 2.17675 14.1008C1.85258 14.3783 1.66675 14.7817 1.66675 15.2083C1.66675 16.0125 2.32091 16.6667 3.12508 16.6667H16.8751C17.6792 16.6667 18.3334 16.0125 18.3334 15.2083C18.3334 14.7817 18.1476 14.3783 17.8159 14.0942Z" fill="white"/>
<path d="M10.0001 20C11.5093 20 12.7718 18.9242 13.0618 17.5H6.93848C7.22848 18.9242 8.49098 20 10.0001 20Z" fill="white"/>
</g>
<defs>
<clipPath id="clip0">
<rect width="20" height="20" fill="white"/>
</clipPath>
</defs>
</svg>
