<svg xmlns="http://www.w3.org/2000/svg" xmlns:xlink="http://www.w3.org/1999/xlink" width="443.454" height="498.542" viewBox="0 0 443.454 498.542"><defs><style>.a,.c,.e,.m{fill:#fff;}.a,.f,.g,.i,.j,.l,.q{stroke:#263238;}.a,.f,.g,.i,.j,.k,.l,.q,.t{stroke-linecap:round;stroke-linejoin:round;}.b{fill:#b2b2b2;}.b,.e,.o,.r{opacity:0.5;}.c{opacity:0.7;}.d{fill:#c6c6c6;}.f,.u{fill:#263238;}.g,.k,.l,.q,.t{fill:none;}.h,.i,.j,.o,.r{fill:#31faae;}.i,.l{stroke-width:2px;}.k,.t{stroke:#fff;}.n{clip-path:url(#a);}.o{mix-blend-mode:multiply;isolation:isolate;}.p{clip-path:url(#b);}.q,.t{stroke-width:0.5px;}.s{clip-path:url(#c);}</style><clipPath id="a"><path class="a" d="M284.38,230.11s13.712,29.272,13.712,30.812-12.171,8.166-14.482,9.553a55.735,55.735,0,0,1-5.546,2.773l1.387,13.558s20.952-4.776,29.734-9.551,8.473-10.168,6.471-18.179S300.095,220.1,300.095,220.1Z" transform="translate(-278.064 -220.095)"/></clipPath><clipPath id="b"><path class="a" d="M208.469,222.847s-10.014,36.668-10.323,43.137,19.875,19.258,20.645,20.029-1.144-22.281-1.144-22.281l6.843-33.489Z" transform="translate(-198.143 -222.847)"/></clipPath><clipPath id="c"><path class="a" d="M231.214,183.417s4,14.174,11.554,22.495,10.323,10.321,14.329,9.706,8.319-5.854,14.328-16.794,6.471-19.258,6.933-20.028-1.232-16.176-9.86-22.8-18.179-9.551-26.5-2.312S228.44,172.787,231.214,183.417Z" transform="translate(-230.466 -149.459)"/></clipPath></defs><g transform="translate(0 0.5)"><g transform="translate(0 50.45)"><g transform="translate(0 0)"><path class="b" d="M523.634,253.764c1.972-53.332-17.2-107.315-59.433-133.011-20.855-12.688-45.232-20.113-69.62-19.021-26.16,1.172-50.8,11.819-75.475,20.581s-51.389,15.8-76.824,9.573c-18.406-4.511-34.594-15.649-52.852-20.728-71.691-19.942-134.153,61.454-99.05,126.119,8.614,15.87,21.907,28.592,33.05,42.8s20.527,31.352,19.028,49.347c-1.241,14.893-9.738,28.166-13.25,42.692-6.727,27.822,6.609,58.436,29.674,75.388s54.176,20.954,81.937,13.982,52.275-24.058,71.561-45.209c10.324-11.323,20.388-24.565,35.22-28.413,14.222-3.688,28.9,2.309,43.328,5.066a99.758,99.758,0,0,0,76.967-17.507C502.8,349.647,521.853,301.971,523.634,253.764Z" transform="translate(-80.317 -101.626)"/><path class="c" d="M523.634,253.764c1.972-53.332-17.2-107.315-59.433-133.011-20.855-12.688-45.232-20.113-69.62-19.021-26.16,1.172-50.8,11.819-75.475,20.581s-51.389,15.8-76.824,9.573c-18.406-4.511-34.594-15.649-52.852-20.728-71.691-19.942-134.153,61.454-99.05,126.119,8.614,15.87,21.907,28.592,33.05,42.8s20.527,31.352,19.028,49.347c-1.241,14.893-9.738,28.166-13.25,42.692-6.727,27.822,6.609,58.436,29.674,75.388s54.176,20.954,81.937,13.982,52.275-24.058,71.561-45.209c10.324-11.323,20.388-24.565,35.22-28.413,14.222-3.688,28.9,2.309,43.328,5.066a99.758,99.758,0,0,0,76.967-17.507C502.8,349.647,521.853,301.971,523.634,253.764Z" transform="translate(-80.317 -101.626)"/></g></g><g transform="translate(39.738 428.395)"><g transform="translate(0)"><ellipse class="d" cx="174.118" cy="34.824" rx="174.118" ry="34.824"/><ellipse class="e" cx="174.118" cy="34.824" rx="174.118" ry="34.824"/></g></g><g transform="translate(265.392)"><g transform="translate(0 0)"><rect class="a" width="141.07" height="153.921" rx="6.033"/><path class="f" d="M6.033,0h129a6.033,6.033,0,0,1,6.033,6.033v9.8a0,0,0,0,1,0,0H0a0,0,0,0,1,0,0v-9.8A6.033,6.033,0,0,1,6.033,0Z"/><g transform="translate(7.693 82.179)"><line class="g" x2="56.761"/><line class="g" x2="56.761" transform="translate(0 7.331)"/><line class="g" x2="56.761" transform="translate(0 14.661)"/><line class="g" x2="56.761" transform="translate(0 21.992)"/><line class="g" x2="56.761" transform="translate(0 29.322)"/><line class="g" x2="56.761" transform="translate(0 36.653)"/><line class="g" x2="56.761" transform="translate(0 43.983)"/><line class="g" x2="56.761" transform="translate(0 51.314)"/><line class="g" x2="56.761" transform="translate(0 58.644)"/><g transform="translate(66.746)"><line class="g" x2="56.761"/><line class="g" x2="56.761" transform="translate(0 7.331)"/><line class="g" x2="56.761" transform="translate(0 14.661)"/><line class="g" x2="56.761" transform="translate(0 21.992)"/><line class="g" x2="56.761" transform="translate(0 29.322)"/><line class="g" x2="56.761" transform="translate(0 36.653)"/><line class="g" x2="56.761" transform="translate(0 43.983)"/><line class="g" x2="56.761" transform="translate(0 51.314)"/><line class="g" x2="56.761" transform="translate(0 58.644)"/></g></g><path class="h" d="M330.62,91.807a8.817,8.817,0,0,0,.442-2.694c0-3.329-3.379-3.525-6.709-3.525h-.832V84.8h14.495v.784c-3.772,0-5.093,2.4-6.318,5.974l-7.688,23.062c-.587,1.714-1.077,2.988-2.888,2.988h-.148l-6.806-22.035L307.8,114.625c-.587,1.714-1.077,2.988-2.888,2.988h-.148l-9.89-32.024H291.4V84.8h12.732v.784h-3.624l7.345,25.267h.294l5.534-16.845-2.595-8.422H307.6V84.8h12.732v.784h-3.622l7.344,25.267h.294Z" transform="translate(-284.97 -56.017)"/><g transform="translate(73.192 21.484)"><rect class="i" width="58.414" height="52.793"/><path class="f" d="M401.657,96.266a35.891,35.891,0,0,0-5.83.822c-8.874,1.929-11.189,14.661-21.22,14.661-8.883,0-9.647-11.961-22.377-13.5a13.985,13.985,0,0,0-8.987,1.6V127h58.414Z" transform="translate(-343.243 -74.203)"/><path class="a" d="M361.242,89.981a6.559,6.559,0,1,1-6.559-6.559A6.559,6.559,0,0,1,361.242,89.981Z" transform="translate(-341.838 -77.899)"/></g><rect class="a" width="130.02" height="5.016" transform="translate(4.244 4.63)"/></g><g transform="translate(61.097 184.643)"><path class="f" d="M398.913,205.833H342.62a8.341,8.341,0,0,0-8.341,8.341v30.108a8.341,8.341,0,0,0,8.341,8.341h1.753c-1.747,3.885-5.109,9.788-10.522,13.306,0,0,11.419-.8,23.32-13.306h41.743a8.34,8.34,0,0,0,8.34-8.341V214.174A8.34,8.34,0,0,0,398.913,205.833Z" transform="translate(-333.85 -205.833)"/><g transform="translate(18.651 18.029)"><path class="j" d="M356.918,224.126a4.293,4.293,0,1,0-4.292,4.292A4.293,4.293,0,0,0,356.918,224.126Z" transform="translate(-348.333 -219.833)"/><path class="j" d="M368.251,224.126a4.292,4.292,0,1,0-4.292,4.292A4.293,4.293,0,0,0,368.251,224.126Z" transform="translate(-345.072 -219.833)"/><path class="j" d="M379.586,224.126a4.293,4.293,0,1,0-4.293,4.292A4.294,4.294,0,0,0,379.586,224.126Z" transform="translate(-341.81 -219.833)"/></g></g></g><g transform="translate(28.397 18.259)"><g transform="translate(45.336 0)"><path class="j" d="M6.463,0H102.8a6.463,6.463,0,0,1,6.463,6.463V72.557a0,0,0,0,1,0,0H0a0,0,0,0,1,0,0V6.463A6.463,6.463,0,0,1,6.463,0Z"/><rect class="f" width="109.267" height="10.333" transform="translate(0 62.224)"/><rect class="a" width="99.263" height="3.268" transform="translate(5.002 65.757)"/><g transform="translate(39.543 17.859)"><ellipse class="f" cx="15.091" cy="15.091" rx="15.091" ry="15.091"/><path class="a" d="M174.712,94.915l16.282,9.4-16.282,9.4Z" transform="translate(-166.431 -89.225)"/></g></g><g transform="translate(0 98.992)"><rect class="f" width="110.967" height="46.788" rx="2.815"/><g transform="translate(7.955 6.373)"><path class="h" d="M113.806,158.449l.538.9c-2.452,1.374-4.722,3.765-4.722,6.575a3.618,3.618,0,0,0,3.467,3.885c.359,0,.6-.179.6-.538q0-.448-.537-.537a2.124,2.124,0,0,1-1.554-2.273,2.946,2.946,0,0,1,3.168-2.869,3.243,3.243,0,0,1,3.227,3.348,4.062,4.062,0,0,1-4.244,4,4.848,4.848,0,0,1-5.2-5.021C108.546,162.633,111.057,160,113.806,158.449Zm11.058,0,.538.9c-2.451,1.374-4.722,3.765-4.722,6.575a3.618,3.618,0,0,0,3.467,3.885c.359,0,.6-.179.6-.538q0-.448-.537-.537a2.124,2.124,0,0,1-1.554-2.273,2.946,2.946,0,0,1,3.168-2.869,3.242,3.242,0,0,1,3.227,3.348,4.061,4.061,0,0,1-4.243,4,4.848,4.848,0,0,1-5.2-5.021C119.6,162.633,122.115,160,124.864,158.449Z" transform="translate(-108.546 -158.449)"/></g><line class="k" x2="63.142" transform="translate(34.867 15.906)"/><line class="k" x2="63.142" transform="translate(34.867 21.33)"/><line class="k" x2="63.142" transform="translate(34.867 26.753)"/><line class="k" x2="63.142" transform="translate(34.867 32.176)"/></g><g transform="translate(54.52 166.244)"><ellipse class="f" cx="23.919" cy="23.919" rx="23.919" ry="23.919" transform="matrix(0.987, -0.161, 0.161, 0.987, 1.012, 8.719)"/><ellipse class="a" cx="20.175" cy="20.175" rx="20.175" ry="20.175" transform="matrix(0.66, -0.751, 0.751, 0.66, 0, 30.32)"/><path class="l" d="M166.816,216.5v14.595h9.873" transform="translate(-138.344 -202.623)"/></g></g><g transform="translate(92.477 78.603)"><g transform="translate(0 0)"><g transform="translate(59.254 124.406)"><g transform="translate(102.918)"><path class="m" d="M284.38,230.11s13.712,29.272,13.712,30.812-12.171,8.166-14.482,9.553a55.735,55.735,0,0,1-5.546,2.773l1.387,13.558s20.952-4.776,29.734-9.551,8.473-10.168,6.471-18.179S300.095,220.1,300.095,220.1Z" transform="translate(-278.064 -220.095)"/><g class="n"><path class="o" d="M306.986,277.253c8.781-4.776,8.473-10.168,6.471-18.179S297.9,220.1,297.9,220.1l-2.188,1.395-.7,1.323s12.628,31,13.393,41.329c.515,6.937-13.456,15.595-22.7,20.537C292.543,282.841,301.847,280.048,306.986,277.253Z" transform="translate(-275.865 -220.095)"/></g><path class="g" d="M284.38,230.11s13.712,29.272,13.712,30.812-12.171,8.166-14.482,9.553a55.735,55.735,0,0,1-5.546,2.773l1.387,13.558s20.952-4.776,29.734-9.551,8.473-10.168,6.471-18.179S300.095,220.1,300.095,220.1Z" transform="translate(-278.064 -220.095)"/></g><g transform="translate(0 3.544)"><path class="m" d="M208.469,222.847s-10.014,36.668-10.323,43.137,19.875,19.258,20.645,20.029-1.144-22.281-1.144-22.281l6.843-33.489Z" transform="translate(-198.143 -222.847)"/><g class="p"><path class="o" d="M213.056,225.846l-.224-.985-4.363-2.014s-10.014,36.668-10.323,43.137,19.875,19.258,20.645,20.029c.305.305.188-3.137-.064-7.4-6-5.091-14.615-12.244-15.622-15.263" transform="translate(-198.143 -222.847)"/></g><path class="g" d="M208.469,222.847s-10.014,36.668-10.323,43.137,19.875,19.258,20.645,20.029-1.144-22.281-1.144-22.281l6.843-33.489Z" transform="translate(-198.143 -222.847)"/></g></g><g transform="translate(62.339 88.245)"><path class="j" d="M254.769,194.9s-3.852,2.773-11.4,3.08-7.89-5.129-17.255-5.084c-11.339.054-25.575,35.9-25.575,35.9s7.087,6.933,14.02,9.86a49.624,49.624,0,0,0,12.017,3.543l1.078,23.572H304.07l.925-23.572,23.88-15.56s-11.708-20.953-17.409-28.81-15.252-4.931-18.179-2.927-11.555,2.465-14.79,2-12.325-3.389-12.325-3.389S261.24,189.352,254.769,194.9Z" transform="translate(-200.539 -192.014)"/><line class="q" x1="0.308" y2="39.132" transform="translate(26.499 11.203)"/><path class="q" d="M223.509,203.466s1.079,19.1,5.084,29.734" transform="translate(-193.929 -188.719)"/><path class="q" d="M228.056,227.752s2,5.7,3.235,7.549" transform="translate(-192.621 -181.73)"/><path class="q" d="M225.424,201.791a121.708,121.708,0,0,0,6.162,20.336" transform="translate(-193.378 -189.201)"/><path class="q" d="M278.536,204.423s-3.7,15.1-6.932,21.876" transform="translate(-180.089 -188.444)"/><line class="q" x1="0.154" y1="30.505" transform="translate(104.301 19.677)"/><path class="q" d="M282.471,207.773S279.7,227.03,272.92,237.2" transform="translate(-179.711 -187.48)"/><path class="q" d="M278.876,227.632s-3.082,5.855-5.239,8.936" transform="translate(-179.505 -181.765)"/><path class="q" d="M239.3,196.048s2.156,13.25,5.237,20.028,8.473,8.166,13.1,6.162,8.012-11.863,7.7-24.5" transform="translate(-189.385 -190.854)"/></g><g transform="translate(95.402 33.445)"><g transform="translate(0 29.049)"><path class="j" d="M232.129,175.233s-2.927-5.085-5.237-2.466,1.848,8.628,4.159,10.63,4,.77,3.852-1.386S232.129,175.233,232.129,175.233Z" transform="translate(-226.214 -172.017)"/><path class="r" d="M232.129,175.233s-2.927-5.085-5.237-2.466,1.848,8.628,4.159,10.63,4,.77,3.852-1.386S232.129,175.233,232.129,175.233Z" transform="translate(-226.214 -172.017)"/><path class="j" d="M232.129,175.233s-2.927-5.085-5.237-2.466,1.848,8.628,4.159,10.63,4,.77,3.852-1.386S232.129,175.233,232.129,175.233Z" transform="translate(-226.214 -172.017)"/></g><g transform="translate(49.762 29.049)"><path class="j" d="M267.64,175.233s2.927-5.085,5.237-2.466-1.848,8.628-4.159,10.63-4,.77-3.852-1.386S267.64,175.233,267.64,175.233Z" transform="translate(-264.857 -172.017)"/><path class="r" d="M267.64,175.233s2.927-5.085,5.237-2.466-1.848,8.628-4.159,10.63-4,.77-3.852-1.386S267.64,175.233,267.64,175.233Z" transform="translate(-264.857 -172.017)"/><path class="j" d="M267.64,175.233s2.927-5.085,5.237-2.466-1.848,8.628-4.159,10.63-4,.77-3.852-1.386S267.64,175.233,267.64,175.233Z" transform="translate(-264.857 -172.017)"/></g><path class="a" d="M241.575,193.416s2.773,12.48,5.546,19.412,8.011,6.933,10.168,2.466,3.543-21.108,3.543-21.108S246.35,196.19,241.575,193.416Z" transform="translate(-221.794 -136.81)"/><g transform="translate(5.476)"><path class="m" d="M231.214,183.417s4,14.174,11.554,22.495,10.323,10.321,14.329,9.706,8.319-5.854,14.328-16.794,6.471-19.258,6.933-20.028-1.232-16.176-9.86-22.8-18.179-9.551-26.5-2.312S228.44,172.787,231.214,183.417Z" transform="translate(-230.466 -149.459)"/><g class="s"><path class="o" d="M268.5,155.994c-8.628-6.624-18.179-9.551-26.5-2.312s-13.558,19.1-10.784,29.734c0,0,.77,2.725,2.27,6.485a4.71,4.71,0,0,1,.194-1.4c1.838-5.828,7.272-17.123,25.565-11.952,14.517,4.105,12.741,16.871,11.39,23.691.261-.465.523-.93.791-1.418,6.009-10.938,6.471-19.257,6.933-20.028S277.124,162.619,268.5,155.994Z" transform="translate(-230.466 -149.459)"/></g><path class="g" d="M231.214,183.417s4,14.174,11.554,22.495,10.323,10.321,14.329,9.706,8.319-5.854,14.328-16.794,6.471-19.258,6.933-20.028-1.232-16.176-9.86-22.8-18.179-9.551-26.5-2.312S228.44,172.787,231.214,183.417Z" transform="translate(-230.466 -149.459)"/></g><path class="g" d="M252.041,181.572a62.981,62.981,0,0,0-.771,9.09c.155,3.08,1.079,4-.308,4.313s-2.927-1.848-2.927-1.848" transform="translate(-219.935 -140.218)"/><path class="g" d="M239.182,183.486s3.082,2.312,6.162.155" transform="translate(-222.482 -139.668)"/><path class="g" d="M254.376,183.486s3.082,2.312,6.162.155" transform="translate(-218.11 -139.668)"/><path class="g" d="M249.64,180.52s-2.927-7.241-12.633-3.852" transform="translate(-223.108 -141.89)"/><path class="g" d="M253.085,179.711s2.466-7.087,11.247-2.927" transform="translate(-218.482 -141.973)"/><path class="g" d="M252.818,185.162c0,3.956-4.552,7.164-10.168,7.164s-10.168-3.208-10.168-7.164,4.244-5.624,9.86-5.624S252.818,181.206,252.818,185.162Z" transform="translate(-224.41 -140.804)"/><path class="g" d="M271,185.162c0,3.956-4.552,7.164-10.168,7.164s-10.168-3.208-10.168-7.164,4.244-5.624,9.86-5.624S271,181.206,271,185.162Z" transform="translate(-219.177 -140.804)"/></g><g transform="translate(6.237 201.334)"><path class="a" d="M165.775,279.833l-.635,156.106a1.85,1.85,0,0,0,1.85,1.859h0a1.85,1.85,0,0,0,1.849-1.787l4.447-155.963Z" transform="translate(-154.623 -279.833)"/><path class="a" d="M157.608,308.167l-.635,161.4a1.85,1.85,0,0,0,1.851,1.859h0a1.852,1.852,0,0,0,1.85-1.787l4.445-161.257Z" transform="translate(-156.973 -271.68)"/><path class="a" d="M334.909,279.833l.635,156.106a1.85,1.85,0,0,1-1.851,1.859h0a1.85,1.85,0,0,1-1.849-1.787L327.4,280.048Z" transform="translate(-107.932 -279.833)"/><path class="a" d="M343.077,308.167l.635,161.4a1.85,1.85,0,0,1-1.85,1.859h0a1.852,1.852,0,0,1-1.851-1.787l-4.445-161.257Z" transform="translate(-105.582 -271.68)"/></g><g transform="translate(66.152 228.378)"><path class="a" d="M214.382,313.377l-.4,143.255a1.384,1.384,0,0,0,1.177,1.529h0a1.37,1.37,0,0,0,1.177-1.469l2.827-143.138Z" transform="translate(-200.485 -297.224)"/><path class="a" d="M285.6,309.8l.341,125.019a1.17,1.17,0,0,1-.994,1.293h0a1.158,1.158,0,0,1-.994-1.243l-2.389-124.92Z" transform="translate(-181.035 -298.253)"/><path class="a" d="M214.1,309.8l.341,125.019a1.17,1.17,0,0,1-.994,1.293h0a1.158,1.158,0,0,1-.994-1.243l-2.389-124.92Z" transform="translate(-201.61 -298.253)"/><path class="a" d="M283.757,313.377l.4,143.255a1.384,1.384,0,0,1-1.177,1.529h0a1.369,1.369,0,0,1-1.176-1.469l-2.828-143.138Z" transform="translate(-181.78 -297.224)"/><ellipse class="a" cx="57.305" cy="13.092" rx="57.305" ry="13.092"/></g><g transform="translate(45.174 224.05)"><path class="a" d="M227.275,398.065s-3,4.293-.858,6.439,4.292,1.288,4.077,3.434-3.648,9.443-6.653,17.17,3.219,15.453,9.014,13.308,5.151-23.61,6.009-27.473,1.5-4.507,1.288-8.155-.429-7.511-3.219-7.942S228.563,396.563,227.275,398.065Z" transform="translate(-176.894 -269.469)"/><path class="j" d="M236.419,424.311c-3.866-1.462-9.79-1.16-13.131-.825,1.12,4.854,5.41,8.266,9.5,6.752C234.485,429.609,235.627,427.322,236.419,424.311Z" transform="translate(-176.828 -261.291)"/><path class="a" d="M221.167,390.719s6.224,10.517,7.94,13.306,7.513,1.932,8.157-1.932S234.9,387.5,234.9,387.5l-12.878,3.219Z" transform="translate(-177.438 -271.566)"/><path class="j" d="M209.913,378.679s-1.718,2.791-.859,4.722,3.219,7.512,4.722,10.3,8.37,4.507,16.311,3.219,12.449-4.937,12.664-8.157-1.288-7.512-2.362-12.663-3.863-4.936-7.727-4.936S213.132,375.674,209.913,378.679Z" transform="translate(-180.993 -276.267)"/><path class="f" d="M236.689,335.561c.118-5.281,3.174-7.88,3.4-11.5a45.609,45.609,0,0,0-1.168-14.306l-5.876-8.03c-16.89.219-29,.5-29.2.568-.644.214-1.074,3.863-1.5,6.868,0,0-7.166.909-5.879,20.869.18,2.791,7.416,34.974,7.939,38.62,3.217,22.429,10.388,33.658,10.388,33.658s.644,2.791,9.014,2.147,16.741-6.224,16.741-6.224S236.259,354.662,236.689,335.561Z" transform="translate(-184.59 -296.248)"/><path class="a" d="M203.8,305.191s-8.864,1.332-14.3,7.491-.823,10.289,9.741,9.2,22.738-11.92,23.254-12.5S211.484,301.521,203.8,305.191Z" transform="translate(-187.21 -295.547)"/><path class="a" d="M213.025,309.727a84.186,84.186,0,0,1,16.741,2.576c7.3,2.147,20.175,6.439,23.18,6.439s2.147-11.161,2.147-13.306S216.46,302,211.737,302,213.025,309.727,213.025,309.727Z" transform="translate(-180.672 -296.17)"/><path class="j" d="M246.45,304.669s-3.434,1.717-4.722,8.155-3,9.873-.429,11.59,13.737,3,15.453,1.288,6.439-10.3,7.3-15.882S246.45,304.669,246.45,304.669Z" transform="translate(-172.03 -295.404)"/><path class="f" d="M257.868,308.883a26.843,26.843,0,0,0-4.721,7.727A71.468,71.468,0,0,0,251,325.624a84.367,84.367,0,0,1,12.019,4.293c6.869,3,18.459,5.151,29.618,7.727s14.165,5.151,18.029,5.151,8.585-3.006,14.6-10.3.858-22.751-5.151-27.473-38.2-8.584-42.5-7.3S257.868,308.883,257.868,308.883Z" transform="translate(-168.854 -297.472)"/><path class="j" d="M195.687,320.412a26.057,26.057,0,0,0-5.026-10.557c-.4.376-.787.769-1.158,1.189C184.724,316.459,187.717,320.3,195.687,320.412Z" transform="translate(-187.209 -293.909)"/><path class="t" d="M230.173,320.692s-4.43,47.395-13.475,54.777" transform="translate(-178.724 -290.791)"/><path class="t" d="M227.571,355.632s-3.507,15.506-12.736,21.6" transform="translate(-179.26 -280.737)"/><path class="t" d="M270.74,314s-13.736.859-4.722,6.868,25.326,9.873,25.326,9.873" transform="translate(-165.414 -292.717)"/></g><g transform="translate(0 192.213)"><path class="f" d="M402.384,308.275l-4.639-4.178-10.71-23.144a6.164,6.164,0,0,0-5.624-3.49h-208.1a6.166,6.166,0,0,0-5.625,3.49l-13.357,28.864-2.2-.809v6.607l.109-.085a3.655,3.655,0,0,0,3.695,3.141H398.786a3.627,3.627,0,0,0,3.7-3.414Z" transform="translate(-152.13 -271.394)"/><path class="a" d="M398.769,313.958H155.917a3.557,3.557,0,0,1-3.407-4.964l15.157-32.754a6.167,6.167,0,0,1,5.625-3.49h208.1a6.164,6.164,0,0,1,5.624,3.49l15.158,32.754A3.557,3.557,0,0,1,398.769,313.958Z" transform="translate(-152.113 -272.75)"/><path class="o" d="M165.347,291.176s-5.5,3.781-2.062,5.155,42.961.344,47.772-1.03,10.311-14.092,10.311-16.154-6.923-3.536-9.477-3.659-36.234,1.941-36.234,1.941Z" transform="translate(-149.245 -271.964)"/><ellipse class="o" cx="14.091" cy="5.843" rx="14.091" ry="5.843" transform="translate(198.599 14.057)"/><ellipse class="o" cx="50.522" cy="9.451" rx="50.522" ry="9.451" transform="translate(72.467 14.057)"/></g><g transform="translate(195.818 186.008)"><path class="j" d="M310.756,270.95s-.923-3.7-4-2.465-2.774,9.4-2.157,14.02,4.776,2.465,4.776,2.465V282.2s-1.541,1.232-2.312-.461-.616-10.168.155-10.015,2.31,2.774,2.31,2.774S309.986,274.185,310.756,270.95Z" transform="translate(-304.192 -267.844)"/><path class="j" d="M307.57,270.822v20.246c0,2.377,5.474,4.3,12.229,4.3s12.229-1.925,12.229-4.3V270.822Z" transform="translate(-303.219 -267.099)"/><path class="a" d="M332.027,271.654c0,2.055-5.476,3.72-12.229,3.72s-12.229-1.665-12.229-3.72,5.474-3.723,12.229-3.723S332.027,269.6,332.027,271.654Z" transform="translate(-303.219 -267.931)"/><path class="a" d="M330.072,271.545c0,1.786-4.76,3.235-10.63,3.235s-10.63-1.449-10.63-3.235,4.76-3.236,10.63-3.236S330.072,269.758,330.072,271.545Z" transform="translate(-302.862 -267.822)"/><path class="f" d="M310.7,272.684a29.167,29.167,0,0,0,16.4,0,29.169,29.169,0,0,0-16.4,0Z" transform="translate(-302.319 -266.902)"/></g><g transform="translate(6.826 178.103)"><path class="a" d="M163.452,278.137l.154,6.933,46.681.462v-8.011Z" transform="translate(-155.699 -257.267)"/><path class="a" d="M199.89,287.977l6.779-14.636v-4.314l-7.087,12.325Z" transform="translate(-145.302 -259.711)"/><path class="a" d="M163.452,283.042l.154,6.933,46.681.462v-8.011Z" transform="translate(-155.699 -255.855)"/><path class="a" d="M199.89,292.882l6.779-14.636v-4.314l-7.087,12.325Z" transform="translate(-145.302 -258.299)"/><path class="a" d="M183.209,265.1s1.079-2.157-.462-3.082-3.235,1.232-4.159,2-20.336,13.558-20.953,15.56,0,6.471,4.161,6.933,7.857-2.312,9.706-2.774,2.619-.616,2.619-.616l12.786-17.256Z" transform="translate(-157.431 -261.793)"/><path class="a" d="M161.8,282.685c4.159.462,7.857-2.311,9.706-2.774s2.618-.616,2.618-.616l.465-.626-12.019-2.456a4.033,4.033,0,0,0-4.931-.462C157.019,277.755,157.634,282.223,161.8,282.685Z" transform="translate(-157.431 -257.963)"/><path class="a" d="M161.418,279.305h36.051c11.246,0,14.635-.617,14.635-.617l6.933-14.328s-21.876,1.387-28.655.925-8.32-.925-8.32-.925Z" transform="translate(-156.284 -261.054)"/><path class="a" d="M161.418,276.1l.616,2.773s29.272.155,36.975.155,13.557.308,13.557.308l-.462-3.852Z" transform="translate(-156.284 -257.852)"/><path class="a" d="M201.241,282.54l6.471-14.79v-3.389l-6.933,14.328Z" transform="translate(-144.957 -261.053)"/></g><g transform="translate(71.852 152.601)"><path class="a" d="M301.959,292.584H213.677a1.484,1.484,0,0,1-1.484-1.483h0a1.484,1.484,0,0,1,1.484-1.483h88.282a1.484,1.484,0,0,1,1.484,1.483h0A1.484,1.484,0,0,1,301.959,292.584Z" transform="translate(-206.699 -228.284)"/><path class="a" d="M303.93,303.306H214.146a1.332,1.332,0,0,1-1.328-1.221l-4.887-58.654a1.332,1.332,0,0,1,1.328-1.442h99.558a1.331,1.331,0,0,1,1.326,1.442l-4.886,58.654A1.332,1.332,0,0,1,303.93,303.306Z" transform="translate(-207.926 -241.989)"/><path class="a" d="M257.989,268c0,3.5-3.8,6.332-8.479,6.332s-8.477-2.834-8.477-6.332,3.8-6.331,8.477-6.331S257.989,264.5,257.989,268Z" transform="translate(-198.4 -236.327)"/></g><g transform="translate(202.429 130.303)"><path class="g" d="M322.331,232.788a7.7,7.7,0,0,0,2.74-4.3,7.788,7.788,0,0,0-.093-3.816" transform="translate(-305.582 -224.674)"/><path class="g" d="M315.8,276.493s8.569-5.108,5.768-11.04-12.24-9.779-12.24-18.953c0-7.907,8.406-10.831,13.886-14" transform="translate(-309.325 -222.423)"/><path class="g" d="M321.3,270.842s4.779-3.181,4.779-8.239c0-3.388-3.625-5.6-8.4-11.039" transform="translate(-306.921 -216.936)"/><path class="g" d="M316,250.588s-3.131-2.471-.824-7.085" transform="translate(-307.884 -219.256)"/></g><g transform="translate(95.885)"><path class="u" d="M268.746,150.224c1.538-.317,4.816-1.589,7.039-6.72a.644.644,0,1,0-1.182-.511c-2.039,4.705-4.953,5.749-6.157,5.98a14.756,14.756,0,0,0,3.384-9.309c0-8.934-8.278-16.177-18.488-16.177s-18.487,7.242-18.487,16.177a14.711,14.711,0,0,0,3.1,8.96c-1.943-.1-5.228.722-9.392,5.58a.643.643,0,1,0,.976.838c5.315-6.2,8.837-5.174,9.549-4.873a19.172,19.172,0,0,0-3.367,2.359c-5.94,5.345-9.553,15.405-9.09,23.88s5.854,15.405,5.854,15.405a35.945,35.945,0,0,0,10.477-11.708,100.2,100.2,0,0,0,5.174-10.529c0,3.777.5,8.337,2.473,11.567,4.439,7.249,10.745,8.453,14.443,8.453a13.831,13.831,0,0,0,3.033-.3.638.638,0,0,0,.4-.326c4.971,1.053,9.916.961,10.677-.086,1.232-1.695,2.971-6.956,3.544-13.4C283.668,164.691,276.784,155.207,268.746,150.224Zm-17.041,30.248c-2.5-4.08-2.424-10.739-2.124-14.563.1-.276.157-.439.157-.439a26.251,26.251,0,0,0,10.476,20.183,18.641,18.641,0,0,0,5.7,2.661C262.769,188.529,256.273,187.933,251.705,180.473Z" transform="translate(-226.589 -123.488)"/><path class="t" d="M246.267,152.029s-1.057,7.8,8.861,15.472,19.307,4.628,19.307,4.628" transform="translate(-220.936 -115.275)"/><path class="t" d="M247.39,149.975s10.448,15.208,24.861,11.241" transform="translate(-220.604 -115.866)"/><path class="t" d="M247.581,146.316a10.1,10.1,0,0,0-10.448.793c-5.554,3.7-8.332,12.431-8.332,12.431" transform="translate(-225.952 -117.232)"/><path class="t" d="M245.984,149.416s-4.5-1.19-7.273,1.587a17.619,17.619,0,0,0-3.438,4.232" transform="translate(-224.091 -116.1)"/></g></g></g></g></svg>