<svg xmlns="http://www.w3.org/2000/svg" width="98" height="98" viewBox="0 0 98 98"><defs><style>.a{fill:#03e68b;}</style></defs><path class="a" d="M109.1,16H20.9A4.914,4.914,0,0,0,16,20.9v88.2a4.914,4.914,0,0,0,4.9,4.9h88.2a4.914,4.914,0,0,0,4.9-4.9V20.9A4.914,4.914,0,0,0,109.1,16Zm1.633,93.1a1.638,1.638,0,0,1-1.633,1.633H20.9a1.638,1.638,0,0,1-1.633-1.633V29.067h91.467Zm0-83.3H19.267V20.9A1.638,1.638,0,0,1,20.9,19.267h88.2a1.638,1.638,0,0,1,1.633,1.633Z" transform="translate(-16 -16)"/><circle class="a" cx="1.5" cy="1.5" r="1.5" transform="translate(5 5)"/><circle class="a" cx="1.5" cy="1.5" r="1.5" transform="translate(10 5)"/><circle class="a" cx="1.5" cy="1.5" r="1.5" transform="translate(15 5)"/><path class="a" d="M62.533,109.067A6.533,6.533,0,1,0,56,102.533,6.526,6.526,0,0,0,62.533,109.067Zm0-9.8a3.267,3.267,0,1,1-3.267,3.267A3.276,3.276,0,0,1,62.533,99.267Z" transform="translate(-47.833 -79.667)"/><rect class="a" width="10" height="3" transform="translate(25 18)"/><rect class="a" width="13" height="3" transform="translate(38 18)"/><rect class="a" width="5" height="3" transform="translate(25 25)"/><rect class="a" width="10" height="3" transform="translate(33 25)"/><path class="a" d="M57.633,221.733h78.4a1.638,1.638,0,0,0,1.633-1.633V177.633A1.638,1.638,0,0,0,136.033,176h-78.4A1.638,1.638,0,0,0,56,177.633V220.1A1.638,1.638,0,0,0,57.633,221.733Zm1.633-42.467H134.4v39.2H59.267Z" transform="translate(-47.833 -143.333)"/><rect class="a" width="7" height="3" transform="translate(72 85)"/><rect class="a" width="6" height="3" transform="translate(82 85)"/><path class="a" d="M69.86,416H67.94a3.941,3.941,0,0,0-2.777,6.737l2.593,2.593a1.639,1.639,0,0,0,2.307,0l2.593-2.593A3.951,3.951,0,0,0,69.86,416Zm.47,4.43L68.9,421.86l-1.429-1.429a.678.678,0,0,1,0-.96.7.7,0,0,1,.47-.2H69.86a.68.68,0,0,1,.674.674.664.664,0,0,1-.2.49Z" transform="translate(-54.2 -334.333)"/><path class="a" d="M124.9,416a4.9,4.9,0,1,0,4.9,4.9A4.888,4.888,0,0,0,124.9,416Zm0,6.533a1.633,1.633,0,1,1,1.633-1.633A1.638,1.638,0,0,1,124.9,422.533Z" transform="translate(-98.767 -334.333)"/><path class="a" d="M147.086,247.457A10.615,10.615,0,0,0,137,245.5v-4.737l1.164-1.164a1.619,1.619,0,0,0,.47-1.164v-3.267a1.664,1.664,0,0,0-.9-1.47,17.152,17.152,0,0,0-7.656-1.8H116.155a17.216,17.216,0,0,0-7.656,1.8,1.641,1.641,0,0,0-.9,1.47v3.267a1.653,1.653,0,0,0,.47,1.164l1.164,1.164v2.593H97.8a6.526,6.526,0,0,0-6.533,6.533v3.267H88v3.267h68.6v-3.267h-2.675Zm-32.952,5.7h-19.6v-3.267a3.24,3.24,0,0,1,2.327-3.124l1.1,2.225a1.619,1.619,0,0,0,2.185.735,1.641,1.641,0,0,0,.9-1.47V246.62h.633l1.184,2.368a1.619,1.619,0,0,0,2.185.735,1.641,1.641,0,0,0,.9-1.47V246.62h.633l1.184,2.368a1.619,1.619,0,0,0,2.185.735,1.641,1.641,0,0,0,.9-1.47V246.62a3.276,3.276,0,0,1,3.267,3.267v3.267Zm9.8-15.374-1.164,1.164a1.619,1.619,0,0,0-.47,1.164v13.067h-4.9v-3.267a6.552,6.552,0,0,0-4.9-6.329v-3.471a1.653,1.653,0,0,0-.47-1.164l-1.164-1.164v-1.531a13.8,13.8,0,0,1,5.288-1.041h2.491a14.188,14.188,0,0,1,5.288,1.041v1.531Zm1.633,15.374V240.761l1.164-1.164a1.619,1.619,0,0,0,.47-1.164v-3.267h2.879a14.188,14.188,0,0,1,5.288,1.041v1.531L134.2,238.9a1.619,1.619,0,0,0-.47,1.164v7.146c-.1.082-.184.143-.286.225l-6.84,5.717Zm6.145,0,3.818-3.185a7.37,7.37,0,0,1,9.453,0h0l3.818,3.185Z" transform="translate(-73.3 -187.82)"/></svg>