<svg width="40" height="40" viewBox="0 0 40 40" fill="none" xmlns="http://www.w3.org/2000/svg">
<path d="M24.2188 40H9.375C4.20563 40 0 35.7944 0 30.625V9.375C0 4.20563 4.20563 0 9.375 0H30.625C35.7944 0 40 4.20563 40 9.375V24.3359C40 25.1989 39.3005 25.8984 38.4375 25.8984C37.5745 25.8984 36.875 25.1989 36.875 24.3359V9.375C36.875 5.92875 34.0713 3.125 30.625 3.125H9.375C5.92875 3.125 3.125 5.92875 3.125 9.375V30.625C3.125 34.0713 5.92875 36.875 9.375 36.875H24.2188C25.0817 36.875 25.7812 37.5745 25.7812 38.4375C25.7812 39.3005 25.0817 40 24.2188 40ZM32.1875 9.84375C32.1875 8.98078 31.488 8.28125 30.625 8.28125H16.3281C15.4652 8.28125 14.7656 8.98078 14.7656 9.84375C14.7656 10.7067 15.4652 11.4062 16.3281 11.4062H30.625C31.488 11.4062 32.1875 10.7067 32.1875 9.84375ZM32.1875 16.0938C32.1875 15.2308 31.488 14.5312 30.625 14.5312H9.375C8.51203 14.5312 7.8125 15.2308 7.8125 16.0938C7.8125 16.9567 8.51203 17.6562 9.375 17.6562H30.625C31.488 17.6562 32.1875 16.9567 32.1875 16.0938ZM16.5625 22.3438C16.5625 21.4808 15.863 20.7812 15 20.7812H9.375C8.51203 20.7812 7.8125 21.4808 7.8125 22.3438C7.8125 23.2067 8.51203 23.9062 9.375 23.9062H15C15.863 23.9062 16.5625 23.2067 16.5625 22.3438ZM7.8125 9.6875C7.8125 10.7662 8.68695 11.6406 9.76562 11.6406C10.8443 11.6406 11.7188 10.7662 11.7188 9.6875C11.7188 8.60883 10.8443 7.73438 9.76562 7.73438C8.68695 7.73438 7.8125 8.60883 7.8125 9.6875ZM38.3296 38.3295C40.5532 36.1059 40.5532 32.4878 38.3296 30.2641L32.8523 24.787C31.2693 23.2038 29.2721 22.1352 27.0769 21.6964L22.65 20.8116C22.138 20.709 21.6083 20.8695 21.2389 21.2389C20.8695 21.6084 20.7092 22.1378 20.8116 22.6501L21.6964 27.077C22.1352 29.2723 23.2039 31.2693 24.7869 32.8524L30.2641 38.3296C31.3413 39.4067 32.7735 40 34.2969 40C35.8202 40 37.2524 39.4067 38.3296 38.3295ZM26.4644 24.7608C28.0526 25.0782 29.4973 25.8512 30.6426 26.9966L36.1198 32.4738C37.1251 33.479 37.1251 35.1146 36.1198 36.1198C35.633 36.6068 34.9855 36.875 34.2969 36.875C33.6083 36.875 32.9608 36.6068 32.4739 36.1198L26.9966 30.6427C25.8514 29.4973 25.0783 28.0526 24.7609 26.4645L24.3353 24.3353L26.4644 24.7608Z" fill="white"/>
</svg>
