<svg xmlns="http://www.w3.org/2000/svg" width="101.267" height="98" viewBox="0 0 101.267 98"><defs><style>.a{fill:#03e68b;}</style></defs><path class="a" d="M103.55,24.167H96.2v-2.45A5.707,5.707,0,0,0,90.483,16h-63.7a5.707,5.707,0,0,0-5.717,5.717v2.45h-7.35A5.707,5.707,0,0,0,8,29.883v63.7A5.707,5.707,0,0,0,13.717,99.3h32.85l-2.185,6.533H37.4a1.638,1.638,0,0,0-1.633,1.633v4.9A1.638,1.638,0,0,0,37.4,114H79.867a1.638,1.638,0,0,0,1.633-1.633v-4.9a1.638,1.638,0,0,0-1.633-1.633H72.884L70.7,99.3h32.85a5.707,5.707,0,0,0,5.717-5.717v-63.7a5.707,5.707,0,0,0-5.717-5.717Zm-79.217-2.45a2.457,2.457,0,0,1,2.45-2.45h63.7a2.457,2.457,0,0,1,2.45,2.45V25.8h-68.6Zm0,7.35h68.6v51.45a2.457,2.457,0,0,1-2.45,2.45h-63.7a2.457,2.457,0,0,1-2.45-2.45Zm53.9,80.033v1.633h-39.2V109.1Zm-30.4-3.267L50.017,99.3H67.27l2.185,6.533ZM106,93.583a2.457,2.457,0,0,1-2.45,2.45H13.717a2.457,2.457,0,0,1-2.45-2.45v-2.45H106Zm0-5.717H11.267V29.883a2.457,2.457,0,0,1,2.45-2.45h7.35V80.517a5.707,5.707,0,0,0,5.717,5.717h63.7A5.707,5.707,0,0,0,96.2,80.517V27.433h7.35a2.457,2.457,0,0,1,2.45,2.45Z" transform="translate(-8 -16)"/><path class="a" d="M107.267,40h-1.633a1.633,1.633,0,1,0,0,3.267h1.633a1.633,1.633,0,0,0,0-3.267Z" transform="translate(-84.4 -35.1)"/><path class="a" d="M139.267,40h-1.633a1.633,1.633,0,0,0,0,3.267h1.633a1.633,1.633,0,0,0,0-3.267Z" transform="translate(-109.867 -35.1)"/><path class="a" d="M171.267,40h-1.633a1.633,1.633,0,0,0,0,3.267h1.633a1.633,1.633,0,0,0,0-3.267Z" transform="translate(-135.333 -35.1)"/><path class="a" d="M105.633,121.929h45.733A1.638,1.638,0,0,0,153,120.3V97.633A1.638,1.638,0,0,0,151.367,96H105.633A1.638,1.638,0,0,0,104,97.633V120.3A1.638,1.638,0,0,0,105.633,121.929Zm1.633-22.662h42.467v19.4H107.267Z" transform="translate(-84.4 -79.667)"/><path class="a" d="M364.9,88a4.914,4.914,0,0,0-4.9,4.9v35.933a1.835,1.835,0,0,0,.163.735l3.267,6.533a1.619,1.619,0,0,0,2.185.735,1.7,1.7,0,0,0,.735-.735l3.267-6.533a1.5,1.5,0,0,0,.163-.735V92.9A4.884,4.884,0,0,0,364.9,88Zm1.633,40.445-1.633,3.267-1.633-3.267V127.2h3.267Zm0-4.512h-3.267V102.7h3.267Zm0-24.5h-3.267V97.8h3.267Zm0-4.9h-3.267V92.9a1.633,1.633,0,0,1,3.267,0Z" transform="translate(-288.133 -73.3)"/><path class="a" d="M105.633,235.267h45.733a1.633,1.633,0,1,0,0-3.267H105.633a1.633,1.633,0,1,0,0,3.267Z" transform="translate(-84.4 -187.9)"/><path class="a" d="M105.633,259.267h45.733a1.633,1.633,0,0,0,0-3.267H105.633a1.633,1.633,0,1,0,0,3.267Z" transform="translate(-84.4 -207)"/><path class="a" d="M105.633,283.267h45.733a1.633,1.633,0,0,0,0-3.267H105.633a1.633,1.633,0,1,0,0,3.267Z" transform="translate(-84.4 -226.1)"/><path class="a" d="M105.633,307.267h16.333a1.633,1.633,0,0,0,0-3.267H105.633a1.633,1.633,0,0,0,0,3.267Z" transform="translate(-84.4 -245.2)"/><path class="a" d="M211.267,304h-1.633a1.633,1.633,0,0,0,0,3.267h1.633a1.633,1.633,0,0,0,0-3.267Z" transform="translate(-167.167 -245.2)"/></svg>