<svg width="24" height="24" viewBox="0 0 24 24" fill="none" xmlns="http://www.w3.org/2000/svg">
    <circle cx="12" cy="12" r="11.5" fill="white" stroke="#C4C4C4"/>
    <path d="M6.17216 16.9273L6.17419 16.9294C6.22827 16.9838 6.29257 17.0271 6.36341 17.0566C6.43425 17.0861 6.51023 17.1014 6.58698 17.1014C6.65156 17.1014 6.71569 17.0907 6.77682 17.0699L10.1051 15.9409L16.4918 9.55416C16.8822 9.16369 17.1016 8.63411 17.1015 8.08193C17.1015 7.52974 16.8821 7.00018 16.4917 6.60974C16.1012 6.21931 15.5716 5.99998 15.0194 6C14.4673 6.00002 13.9377 6.2194 13.5473 6.60987L7.16054 12.9966L6.0316 16.3248C5.99604 16.4283 5.99036 16.5397 6.01522 16.6463C6.04008 16.7528 6.09447 16.8502 6.17216 16.9273V16.9273ZM14.0776 7.14019C14.3278 6.89197 14.666 6.75298 15.0184 6.75366C15.3708 6.75434 15.7086 6.89463 15.9578 7.1438C16.2069 7.39298 16.3472 7.73075 16.3479 8.08313C16.3485 8.43552 16.2095 8.77381 15.9613 9.02394L15.1215 9.8638L13.2377 7.98005L14.0776 7.14019ZM7.81468 13.4031L12.7074 8.51037L14.5911 10.3941L9.6984 15.2868L6.8476 16.2539L7.81468 13.4031Z" fill="#C4C4C4"/>
</svg>
