<svg xmlns="http://www.w3.org/2000/svg" width="28.064" height="23.395" viewBox="0 0 28.064 23.395"><defs><style>.a{fill:none;stroke:#00e68a;stroke-linecap:round;stroke-linejoin:round;stroke-width:1.5px;}</style></defs><g transform="translate(0.75 0.837)"><path class="a" d="M28.064,4.5a13.161,13.161,0,0,1-3.791,1.847,5.409,5.409,0,0,0-9.491,3.622v1.207A12.872,12.872,0,0,1,3.915,5.7S-.915,16.572,9.952,21.4A14.055,14.055,0,0,1,1.5,23.816c10.867,6.037,24.149,0,24.149-13.886a5.433,5.433,0,0,0-.1-1A9.322,9.322,0,0,0,28.064,4.5Z" transform="translate(-1.5 -4.485)"/></g></svg>