<svg xmlns="http://www.w3.org/2000/svg" width="24.307" height="23.166" viewBox="0 0 24.307 23.166"><defs><style>.a{fill:none;stroke:#00e68a;stroke-linecap:round;stroke-linejoin:round;stroke-width:1.5px;}</style></defs><g transform="translate(0.75 0.75)"><path class="a" d="M21.964,12a6.964,6.964,0,0,1,6.964,6.964v8.125H24.286V18.964a2.321,2.321,0,0,0-4.643,0v8.125H15V18.964A6.964,6.964,0,0,1,21.964,12Z" transform="translate(-6.122 -5.423)"/><path class="a" d="M3,13.5H7.643V27.428H3Z" transform="translate(-3 -5.762)"/><path class="a" d="M7.643,5.321A2.321,2.321,0,1,1,5.321,3,2.321,2.321,0,0,1,7.643,5.321Z" transform="translate(-3 -3)"/></g></svg>