<svg xmlns="http://www.w3.org/2000/svg" width="162.747" height="56" viewBox="0 0 162.747 56"><defs><style>.a,.c{fill:#fff;}.b,.d{fill:#00e68a;}.c,.d,.e{fill-rule:evenodd;}.e{fill:#4d4d4d;}</style></defs><path class="a" d="M2291.612,2124.972c-.746-5.935,0-20.139-.324-22.733-.324-2.465-4.9-3.5-4.929-.713-3.243,1.881-16.085,4.54-16.766,10.637-.227,1.913,1.816,3.243,1.946,2.043.389-3.243,6.421-6.194,12-8.4-.94,2.918-2.659,7.718-4.67,12.583-5.611,3.6-11.967,8.594-12.486,13.1-.292,2.529.454,4.573,4.638,5.059,3.7.422,8.464-10.086,11.837-19.1,1.492-.908,2.724-1.654,3.5-2.108a77.547,77.547,0,0,0,.487,8.626c.973,7.491,4.929,11.059,6.972,10.8,2.075-.259-1.005-.648-2.205-9.794Zm-22.96,9.567c-1.751-.195-1.394-2.886-1.394-2.886.357-3.146,5.611-7.491,10.669-10.961-3.178,7.329-6.778,14.139-9.275,13.847Zm17.707-20.463c-.713.357-1.654.876-2.822,1.524,1.265-3.438,2.271-6.486,2.854-8.464C2286.359,2109.179,2286.326,2111.611,2286.359,2114.076Zm11.951-3.826a3.065,3.065,0,0,1,2.3.94,4.222,4.222,0,0,1,.908,2.27,6.14,6.14,0,0,1-.243,2.481,9.511,9.511,0,0,1-1.054,2.254,17.35,17.35,0,0,1-2.173,2.789,59.436,59.436,0,0,0,.519,9.048q.194,1.167.583,1.07.552-.162.811-1.848a6.43,6.43,0,0,0-.551-3.957q-.162-.292-.373-.665t-.292-.519q-.081-.146-.178-.373a.814.814,0,0,1-.081-.389,1.041,1.041,0,0,1,.114-.357q.13-.259.94-.422t1.784-.292a5.617,5.617,0,0,0,2.043-.746,4.279,4.279,0,0,0,1.654-1.687.537.537,0,0,1,.892-.178q.535.405.34.859a6.422,6.422,0,0,1-2.465,2.757,5.26,5.26,0,0,1-2.983,1.005,7.318,7.318,0,0,1,1.362,3.665,9.275,9.275,0,0,1-.551,4.524,5.069,5.069,0,0,1-2.692,3.032,2.4,2.4,0,0,1-2.578-.178,4.722,4.722,0,0,1-1.54-2.221,16.115,16.115,0,0,1-.535-2.076,19.326,19.326,0,0,1-.292-2.448q-.081-1.345-.114-2.221t-.049-2.481q-.016-1.6-.016-2.124v-1.346q0-1.119.016-1.476t.049-1.313a12.446,12.446,0,0,1,.114-1.459q.081-.5.195-1.281a9.414,9.414,0,0,1,.308-1.411,13.274,13.274,0,0,1,.454-1.249,2.94,2.94,0,0,1,1.313-1.427,4.276,4.276,0,0,1,1.995-.552h.065Zm1.2,1.946q-.259,0-.551.422a9.08,9.08,0,0,0-.778,4.086q-.033.357-.065,1.1t-.032,1.1a12.571,12.571,0,0,0,2.108-4.151,3.3,3.3,0,0,0-.016-1.622q-.211-.908-.665-.94Zm4.033,4.767h.13a1.262,1.262,0,0,1,.876.292,3.438,3.438,0,0,1,.778,2.4,9.031,9.031,0,0,0,3.5-.811l.162-.1q.194-.1.34-.178a2.235,2.235,0,0,1,.406-.162,2.155,2.155,0,0,1,.454-.1.8.8,0,0,1,.405.081,1.056,1.056,0,0,1,.373.292,2.593,2.593,0,0,1,.26,2.3,17.86,17.86,0,0,1-.73,1.865,7.107,7.107,0,0,0-.665,2.351.959.959,0,0,0,.341.243q.146.048.681-.568t.811-.989q.276-.372.762-1.021l2.076-3.146q.194-.324.843-.13t.616.616a23.281,23.281,0,0,1-2.27,4.281,12.221,12.221,0,0,1-3.5,4.054,2.9,2.9,0,0,1-2.335.584,2.583,2.583,0,0,1-1.751-1.589q-.94-2.141.227-5.837a8.2,8.2,0,0,1-2.432-.292,3.536,3.536,0,0,1-2.335-1.816,1.508,1.508,0,0,1,.292-1.719,2.1,2.1,0,0,1,1.687-.908Zm-.032,1.362q-.292-.065-.292.26a.81.81,0,0,0,.519.778q0-.973-.227-1.038Zm11.362-6.161a8.8,8.8,0,0,1,.908.065,2.669,2.669,0,0,1,.389.081,1.335,1.335,0,0,1,.276.114.53.53,0,0,1,.195.211,1.51,1.51,0,0,1,.114.243,1.534,1.534,0,0,1,.048.341q.016.243.016.357v1.557a1.679,1.679,0,0,1-.032.259.471.471,0,0,1-.1.243q-.065.065-.179.162a.741.741,0,0,1-.308.146,1.867,1.867,0,0,1-.454.049,10.15,10.15,0,0,1-1.07.016q-.746-.016-1.005-.016a2.241,2.241,0,0,1-.5-.049,1.233,1.233,0,0,1-.324-.114.443.443,0,0,1-.178-.259,2.18,2.18,0,0,1-.081-.292,3.341,3.341,0,0,1-.016-.422v-.422q0-.584-.016-1.054a1.164,1.164,0,0,1,.243-.794,1.061,1.061,0,0,1,.811-.357q.843-.065,1.265-.065Zm.13,5.124h1.784v3.5q0,2.562.032,3.113a4.648,4.648,0,0,0,.1.665,1,1,0,0,0,.308.5.691.691,0,0,0,.665.13q.94-.259,1.881-1.913.389-.713,1.848-3.5.389-.778,1.07-.551a.406.406,0,0,1,.292.616q-.13.324-.535,1.427t-.616,1.605q-.211.5-.583,1.362a10.271,10.271,0,0,1-.794,1.508,12.966,12.966,0,0,1-.908,1.232,5.119,5.119,0,0,1-3.859,2.14,2.853,2.853,0,0,1-1.459-.357,2.232,2.232,0,0,1-1.038-1.005,4.943,4.943,0,0,1-.47-1.492,11.035,11.035,0,0,1-.162-1.378q-.016-.5,0-1.751t.016-1.475a18.768,18.768,0,0,1,.162-3.6q.357-.778,2.27-.778Z" transform="translate(-2227.15 -2093.74)"/><path class="b" d="M3753.975,2065.43c-2.951,0,2.594,3.6,2.594,13.458,0,6.291-2.757,16.6-5.254,18.582-.13-1.654-1.135-4.573-1.135-8.594,0-2.3.065-3.47.065-6.388,0-2.659-2.043-5.643-3.989-5.772-1.881-.13-1.394.583-1.3,2.075-.195,3.243-2.562,15.664-4.508,18.907-.616,0-1.1-1.784-1.1-2.822,0-2.594.843-15.664.843-17.544,0-3.7-2.724-5.74-4.9-5.74a2.906,2.906,0,0,0-.584.065c-2.724.195-6,1.395-10.831,1.395-2.886,0-2.53-1.654-3.535-1.654-1.038,0,.583,5.9,5.513,5.9,3.47,0,5.967-.844,8.334-1.135-.032,6.324-.552,12.907-.552,16.28,0,3.438,2.076,7.037,5.156,7.037a3.3,3.3,0,0,0,.583-.033h.195c1.622,0,3.826-6.551,4.929-12.453.227,9.113,2.5,12.194,5.253,12.194a4.046,4.046,0,0,0,.681-.065c5.253-.519,10.9-10.767,10.9-19.62,0-10.475-4.443-14.074-7.362-14.074Zm7.021,18.063h.13a1.262,1.262,0,0,1,.876.292,3.438,3.438,0,0,1,.778,2.4,9.041,9.041,0,0,0,3.5-.811l.162-.1q.195-.1.341-.178a2.228,2.228,0,0,1,.406-.162,2.156,2.156,0,0,1,.454-.1.8.8,0,0,1,.406.081,1.06,1.06,0,0,1,.373.292,2.594,2.594,0,0,1,.26,2.3,17.86,17.86,0,0,1-.73,1.865,7.109,7.109,0,0,0-.665,2.351.96.96,0,0,0,.341.243q.146.048.681-.568t.811-.989q.276-.373.762-1.022l2.075-3.146q.195-.324.844-.13t.616.616a23.282,23.282,0,0,1-2.27,4.281,12.216,12.216,0,0,1-3.5,4.054,2.9,2.9,0,0,1-2.335.584,2.583,2.583,0,0,1-1.751-1.589q-.94-2.14.227-5.837a15.767,15.767,0,0,1-2.432-.292c-1.725-.22-.365-3.337-.357-4.443Zm-.032,1.362q-.292-.065-.292.259a.81.81,0,0,0,.519.778q0-.973-.227-1.038Zm11.362-6.162a8.8,8.8,0,0,1,.908.065,2.669,2.669,0,0,1,.389.081,1.34,1.34,0,0,1,.276.114.532.532,0,0,1,.195.211,1.486,1.486,0,0,1,.113.243,1.522,1.522,0,0,1,.049.341c.011.162.016.281.016.356v1.557a1.654,1.654,0,0,1-.032.259.471.471,0,0,1-.1.243c-.043.043-.1.1-.179.162a.738.738,0,0,1-.308.146,1.881,1.881,0,0,1-.454.049,10.065,10.065,0,0,1-1.07.016q-.746-.016-1.005-.016a2.257,2.257,0,0,1-.5-.049,1.228,1.228,0,0,1-.324-.114.442.442,0,0,1-.178-.259,2.134,2.134,0,0,1-.081-.292,3.341,3.341,0,0,1-.016-.422v-.422q0-.584-.016-1.054a1.164,1.164,0,0,1,.243-.794,1.061,1.061,0,0,1,.811-.357Q3771.9,2078.694,3772.326,2078.694Zm.13,5.124h1.783v3.5q0,2.562.032,3.113a4.654,4.654,0,0,0,.1.665,1,1,0,0,0,.308.5.69.69,0,0,0,.665.129q.94-.259,1.881-1.913.389-.714,1.848-3.5.389-.778,1.07-.551a.406.406,0,0,1,.292.616q-.13.324-.535,1.427t-.616,1.605q-.211.5-.583,1.362a10.28,10.28,0,0,1-.794,1.508,12.9,12.9,0,0,1-.908,1.232,5.117,5.117,0,0,1-3.859,2.14,2.85,2.85,0,0,1-1.459-.357,2.232,2.232,0,0,1-1.038-1.005,4.943,4.943,0,0,1-.47-1.492,11.041,11.041,0,0,1-.162-1.378q-.016-.5,0-1.751t.016-1.475a18.767,18.767,0,0,1,.162-3.6q.357-.779,2.27-.778Zm7.405-5.124a4.341,4.341,0,0,1,1.589.227v3.34h1.524q.811.1.552.973a1.3,1.3,0,0,1-.876.973l-.227.033h-1.005a61.11,61.11,0,0,0,.1,6.843.618.618,0,0,0,.86.357,2.5,2.5,0,0,0,1.216-1.005,34.785,34.785,0,0,0,2.14-4.281.511.511,0,0,1,.5-.26.909.909,0,0,1,.567.308.543.543,0,0,1,.162.568q-.195.486-.665,1.67t-.665,1.67a12.493,12.493,0,0,1-3.146,4.735,3.082,3.082,0,0,1-1.378.73,2.68,2.68,0,0,1-1.573-.049,3.4,3.4,0,0,1-1.913-2.27,6.153,6.153,0,0,1-.292-1.394,15,15,0,0,1-.032-1.767q.033-1.054.032-1.411.033-.454-.032-4.443h-1.524q-.81-.1-.551-.973a1.229,1.229,0,0,1,.843-.973.936.936,0,0,1,.227-.033h1.005q0-.843.016-1.719t.016-.908q.033-.94,2.53-.94Zm8.378,5.156q2.692.033,3.21,1.411t-1.2,3.389q-.422.519-1.346,1.541t-1.249,1.411a1.964,1.964,0,0,0,1.508.583,2.943,2.943,0,0,0,1.508-.583,24.073,24.073,0,0,0,2.87-2.514,27.634,27.634,0,0,0,2.416-2.675,1.04,1.04,0,0,1,.794-.406.836.836,0,0,1,.665.373.623.623,0,0,1,.1.681,22.2,22.2,0,0,1-2.643,3.843,18.849,18.849,0,0,1-3.194,3.162,7.43,7.43,0,0,1-2.9,1.33,5.3,5.3,0,0,1-3.1-.292,4.419,4.419,0,0,1-2.075-2.416,8.819,8.819,0,0,1-.616-3.616,5.209,5.209,0,0,1,1.589-3.665,4.853,4.853,0,0,1,3.665-1.557Zm1.491,2.043a.934.934,0,0,0-.892-.308,1.615,1.615,0,0,0-1.054.47,2.686,2.686,0,0,0-.778,3.243q.292-.324,1.249-1.216a11.744,11.744,0,0,0,1.33-1.395Q3789.957,2086.184,3789.73,2085.893Zm7.016-2.043a5.632,5.632,0,0,1,2.367.535,3.664,3.664,0,0,1,1.622,1.249.9.9,0,0,1,.081.746,1.457,1.457,0,0,1-.5.778q-.389.324-.681.1-1.395-1.1-2.27-.811-.714.227,0,1.1a2.419,2.419,0,0,0,.227.259l1.249,1.249q1.054,1.054,1.508,1.557a13.931,13.931,0,0,1,1.1,1.459,7.368,7.368,0,0,1,.94,1.865,11.4,11.4,0,0,1,.357,6.567,8.789,8.789,0,0,1-2.837,4.508,6.814,6.814,0,0,1-4.427,1.67,6.547,6.547,0,0,1-4.913-1.719,5.739,5.739,0,0,1-1.67-4.151,12.181,12.181,0,0,1-3.762,1.1,41.949,41.949,0,0,1-5.107.341q-3.486.081-6.7.438a23.073,23.073,0,0,0-5.74,1.33,18.532,18.532,0,0,0-6.745,4.686,14.414,14.414,0,0,0-3.762,6.859q-.259,1.2-1.2.357a7.43,7.43,0,0,1-2.011-3.729,9.864,9.864,0,0,1,.908-8.042,9.618,9.618,0,0,1,2.173-2.432,15.656,15.656,0,0,1,6.616-3.064,25.912,25.912,0,0,1,7.362-.519q3.6.276,7.07.681a34.248,34.248,0,0,0,6.713.146,10.364,10.364,0,0,0,5.351-1.783q1.978-2.724,5.675-1.751a1.168,1.168,0,0,1,.616.341.362.362,0,0,1,.065.406.754.754,0,0,1-.356.324,2.514,2.514,0,0,0-1.411,1.881,2.133,2.133,0,0,0,.827,2.172,1.728,1.728,0,0,0,2.562-.422,5.543,5.543,0,0,0,1.265-3.989,6.2,6.2,0,0,0-2.011-4.508q-.1-.1-.843-.778t-1.005-.957q-.259-.276-.794-.973a3.89,3.89,0,0,1-.681-1.2,3.992,3.992,0,0,1-.13-1.2,3.1,3.1,0,0,1,.373-1.378,2.635,2.635,0,0,1,2.529-1.3Z" transform="translate(-3640.331 -2060.271)"/><path class="c" d="M861.5,3075.547c.741-.062,2-.412,2.844-.563,1.5-.269,8.849-1.269,9.4-1.081l1.267,1.441a17.428,17.428,0,0,0,3,2.449c.274.176.549.335.87.509a6.612,6.612,0,0,1,.864.452,14.45,14.45,0,0,1,1.49.6c.011.007.032.021.048.032l2.438.556a15.559,15.559,0,0,0,13.514-4.38l1.468-1.655c1.981.042,4.4.371,6.346.621,1,.129,2.019.274,3,.45.869.156,2.141.509,2.9.574a27.5,27.5,0,0,0-8.411-2.165,134.242,134.242,0,0,0-30.56-.265c-3.2.336-7.61,1.029-10.481,2.429Z" transform="translate(-861.5 -3039.138)"/><path class="d" d="M1624.243,1907c-.859,0-.665.056-.765-.192a7.245,7.245,0,0,1,1.665-.062c.505,0,.377.055.431.172a3.854,3.854,0,0,1-1.331.083Zm.137-1a51.756,51.756,0,0,1,0-5.285c0-1.814.022-14.853.177-15.575.026,2.042.288,20.565.1,20.859h-.277Zm3.266-15.361a4.535,4.535,0,0,1-.112-1.367l-.018-.235a.857.857,0,0,0-.279.2l-1.647,1.528c.071-.058,1.722-1.953,1.769-2.039.242-.434-.388-2.787-.584-3.221a9.768,9.768,0,0,0-.937.949l-.074-.062c.005-.014.889-1.063.873-1.311-.01-.155-.555-1.43-.64-1.633-.235-.559-.425-.976-.686-1.521l-.794-1.478a25.623,25.623,0,0,0-2.078,4.747,11.3,11.3,0,0,0,.948,1.368l-1.056-1.055a1.749,1.749,0,0,0-.284.743c-.742,2.893-.438,2.311.605,3.575.273.33.566.685.926,1.056l-1.956-1.837a5.762,5.762,0,0,0-.154,1.675c-.054.973-.266,2.231-.383,3.252-.042.371-.1.53.075.789.04.058.158.184.223.261l.231.24a.1.1,0,0,0-.034.053c-.02.13-.122-.081-.158-.123a1.071,1.071,0,0,0-.142-.138c-.1-.1-.163-.149-.244-.236a9.351,9.351,0,0,0-.113,1.347c-.05.947-.163.826.933,1.969a8.793,8.793,0,0,0,.713.8c-.094.147-.043.053-.429-.322l-1.256-1.135c-.03,3.2.3,2.541,1.877,4.587-.5-.455-.819-.865-1.313-1.249.547.926,2.069,2.733,2.088,2.807l.133,2.953c-.251.167-.312-.054-.342.279s.224.242.329.341c-.714,3.26-.332,1.812.319,2.953a1.956,1.956,0,0,1,.2.492c.061.248.007.439.2.534a8.178,8.178,0,0,0,.069-2.11c-.1-.35-.252-.107-.194-.552.263-.169.411-.21.592.13-.112.369-.172.112-.242.424a11.146,11.146,0,0,0,.051,2.1c.32-.1.067-.287.394-.962.281-.58.481-.429.684-.7.217-.288-.232-1.838-.32-2.316.231-.163.342-.088.323-.468l-.333-.153.111-2.846c.049-.384.743-.947,1.3-1.749a7.6,7.6,0,0,0,.776-1.162,5.831,5.831,0,0,1-.555.558l-.629.567c1.084-1.536,1.92-1.185,1.763-4.468a19.337,19.337,0,0,0-1.844,1.7l1.446-1.682c.44-.511.427-.281.377-1.181-.026-.479-.067-.992-.1-1.472a2.879,2.879,0,0,0-.72.695c-.135-.119.436-.543.6-.842.3-.526-.451-2.9-.294-4.052Z" transform="translate(-1599.707 -1880.45)"/><path class="d" d="M1191.909,2342.344a2.28,2.28,0,0,1,.093.5c.127-.048.07-.048.075.121l.115.414.1.275a18.542,18.542,0,0,0,1.245,2.627l2.362-.207-1.443-2.228a14.217,14.217,0,0,1,1.368-15.614,15.54,15.54,0,0,1,2.8-2.74,15.43,15.43,0,0,0-7.067,11.232,17.023,17.023,0,0,0,.349,5.622Z" transform="translate(-1182.253 -2313.08)"/><path class="d" d="M2049.948,2342.344a2.286,2.286,0,0,0-.094.5c-.126-.048-.07-.048-.075.121l-.115.414-.1.275a18.525,18.525,0,0,1-1.245,2.627l-2.362-.207,1.443-2.228a14.218,14.218,0,0,0-1.368-15.614,15.54,15.54,0,0,0-2.8-2.74,15.431,15.431,0,0,1,7.067,11.232,17.026,17.026,0,0,1-.349,5.622Z" transform="translate(-2010.275 -2313.08)"/><path class="e" d="M1713.91,2823.059c.1.248-.094.192.765.192a3.852,3.852,0,0,0,1.331-.083c-.055-.117.073-.173-.431-.172a7.244,7.244,0,0,0-1.665.063Z" transform="translate(-1690.139 -2796.699)"/><path class="c" d="M1611.925,2895.651l.009-.9h.451v-.776l-5.632-.015.005.792.526,0,0,.931c-2.14.014-1.886-.75-1.832,4.616.025,2.409.6,3.415,3.957,3.275,2.157,0,4.393.3,4.4-3.25-.077-5.437-.112-4.629-1.894-4.676Z" transform="translate(-1584.675 -2865.697)"/></svg>