<svg width="40" height="40" viewBox="0 0 40 40" fill="none" xmlns="http://www.w3.org/2000/svg">
<g clip-path="url(#clip0_22_1)">
<path d="M28.0166 21.6665H7.91663C7.22663 21.6665 6.66663 21.1065 6.66663 20.4165V12.9165C6.66663 12.2265 7.22663 11.6665 7.91663 11.6665H32.0833C32.7733 11.6665 33.3333 12.2265 33.3333 12.9165V16.6665C33.3333 17.3565 32.7733 17.9165 32.0833 17.9165C31.3933 17.9165 30.8333 17.3565 30.8333 16.6665V14.1665H9.16662V19.1665H28.0166C28.7066 19.1665 29.2666 19.7265 29.2666 20.4165C29.2666 21.1065 28.7066 21.6665 28.0166 21.6665Z" fill="white"/>
<path d="M23.0333 26.6499H8C7.31 26.6499 6.75 26.0899 6.75 25.3999C6.75 24.7099 7.31 24.1499 8 24.1499H23.0333C23.7233 24.1499 24.2833 24.7099 24.2833 25.3999C24.2833 26.0899 23.7233 26.6499 23.0333 26.6499Z" fill="white"/>
<path d="M18.0667 31.6499H8C7.31 31.6499 6.75 31.0899 6.75 30.3999C6.75 29.7099 7.31 29.1499 8 29.1499H18.0667C18.7567 29.1499 19.3167 29.7099 19.3167 30.3999C19.3167 31.0899 18.7567 31.6499 18.0667 31.6499Z" fill="white"/>
<path d="M20.8783 40.0001C20.5499 40.0001 20.2299 39.8701 19.9949 39.6334C19.7066 39.3451 19.5766 38.9351 19.6483 38.5318L20.5316 33.5234C20.5766 33.2718 20.6983 33.0384 20.8783 32.8568L33.2533 20.4834C33.7799 19.9568 34.3383 19.6284 34.9133 19.5084C35.7083 19.3418 36.4783 19.5834 37.0833 20.1901L39.1449 22.2518C40.2816 23.3884 40.2816 25.2384 39.1449 26.3768L26.7716 38.7518C26.5899 38.9334 26.3566 39.0551 26.1049 39.0984L21.0966 39.9818C21.0233 39.9934 20.9516 40.0001 20.8783 40.0001ZM25.8883 37.8668H25.9049H25.8883ZM22.9249 34.3468L22.4199 37.2084L25.2816 36.7034L37.3766 24.6068C37.5383 24.4434 37.5383 24.1801 37.3766 24.0168L35.3299 21.9701C35.3133 22.0018 35.1883 22.0818 35.0199 22.2484L22.9249 34.3468Z" fill="white"/>
<path d="M16.3833 36.6667H4.58333C2.055 36.6667 0 34.6117 0 32.0833V4.58333C0 2.055 2.055 0 4.58333 0H35.4167C37.945 0 40 2.055 40 4.58333V16.7333C40 17.4233 39.44 17.9833 38.75 17.9833C38.06 17.9833 37.5 17.4233 37.5 16.7333V4.58333C37.5 3.435 36.565 2.5 35.4167 2.5H4.58333C3.435 2.5 2.5 3.435 2.5 4.58333V32.0833C2.5 33.2317 3.435 34.1667 4.58333 34.1667H16.3833C17.0733 34.1667 17.6333 34.7267 17.6333 35.4167C17.6333 36.1067 17.0733 36.6667 16.3833 36.6667Z" fill="white"/>
<path d="M38.75 8.33325H1.25C0.56 8.33325 0 7.77325 0 7.08325C0 6.39325 0.56 5.83325 1.25 5.83325H38.75C39.44 5.83325 40 6.39325 40 7.08325C40 7.77325 39.44 8.33325 38.75 8.33325Z" fill="white"/>
</g>
<defs>
<clipPath id="clip0_22_1">
<rect width="40" height="40" fill="white"/>
</clipPath>
</defs>
</svg>
