<svg width="30" height="30" viewBox="0 0 30 30" fill="none" xmlns="http://www.w3.org/2000/svg">
<g clip-path="url(#clip0)">
<path d="M15.8389 21.529C16.7697 22.5469 17.0372 24.2578 16.4256 25.5292C17.8021 25.1536 19.0878 24.5573 20.2424 23.7807V18.3276C19.1504 19.8051 17.6176 20.9373 15.8389 21.529Z" fill="#AAAAAA"/>
<path d="M4.00002 8.98703C6.20754 8.98703 8.00004 7.19453 8.00004 4.98701C7.80199 -0.31279 0.197227 -0.311384 0 4.98707C0 7.19453 1.7925 8.98703 4.00002 8.98703Z" fill="#AAAAAA"/>
<path d="M2.52979 9.26756C4.35193 9.52572 5.75807 11.095 5.75807 12.9873C5.75807 15.0435 6.61945 16.9022 8.00027 18.2217V12.9873C8.00027 10.7778 6.2093 8.9873 4.00025 8.9873C3.48088 8.98736 2.98512 9.08744 2.52979 9.26756Z" fill="#AAAAAA"/>
<path d="M0 19.9663V28.1079C0 28.5933 0.393516 28.9868 0.878906 28.9868H7.12107C7.60646 28.9868 7.99998 28.5933 7.99998 28.1079V26.8721C4.56281 25.6306 1.71469 23.1473 0 19.9663H0Z" fill="#AAAAAA"/>
<path d="M13 21.9868C8.03303 21.9868 4.00002 17.9538 4.00002 12.9868C4.00002 11.8818 3.10453 10.9868 2.00004 10.9868C0.895488 10.9868 0 11.8818 0 12.9868C0 20.1613 5.82504 25.9868 13 25.9868C15.6484 25.8887 15.6514 22.0855 13 21.9868Z" fill="#AAAAAA"/>
<path d="M26 8.9873C23.791 8.9873 22 10.7778 22 12.9873V28.1084C22 28.5938 22.3935 28.9873 22.8789 28.9873H24.2422V12.9873C24.2422 11.095 25.6484 9.52572 27.4705 9.26756C27.0152 9.08738 26.5195 8.9873 26 8.9873Z" fill="#AAAAAA"/>
<path d="M28 10.9868C26.8955 10.9868 26 11.8818 26 12.9868V28.9868H29.1211C29.6064 28.9868 30 28.5933 30 28.1079V12.9869C30 11.8818 29.1045 10.9868 28 10.9868Z" fill="#AAAAAA"/>
<path d="M26 8.98703C28.2075 8.98703 30 7.19453 30 4.98701C29.8019 -0.31279 22.1972 -0.311384 22 4.98707C21.9999 7.19453 23.7924 8.98703 26 8.98703Z" fill="#AAAAAA"/>
</g>
<defs>
<clipPath id="clip0">
<rect width="30" height="30" fill="white"/>
</clipPath>
</defs>
</svg>
