<svg xmlns="http://www.w3.org/2000/svg" width="97.922" height="98" viewBox="0 0 97.922 98"><defs><style>.a{fill:#03e68b;}</style></defs><path class="a" d="M381.426,54.524a1.914,1.914,0,0,0-1.914-1.914H379.5a1.914,1.914,0,1,0,1.925,1.914Z" transform="translate(-305.358 -42.54)"/><path class="a" d="M435.367,54.524a1.914,1.914,0,0,0-1.914-1.914h-.011a1.914,1.914,0,1,0,1.925,1.914Z" transform="translate(-348.974 -42.54)"/><path class="a" d="M327.513,54.524A1.914,1.914,0,0,0,325.6,52.61h-.011a1.914,1.914,0,1,0,1.925,1.914Z" transform="translate(-261.764 -42.54)"/><path class="a" d="M60.438,54.524a1.914,1.914,0,0,0,1.914,1.914H91.085a1.914,1.914,0,0,0,0-3.828H62.352a1.914,1.914,0,0,0-1.914,1.914Z" transform="translate(-48.909 -42.54)"/><path class="a" d="M91.986,0H32.143a1.914,1.914,0,1,0,0,3.828H91.986A2.312,2.312,0,0,1,94.3,6.135v14H4.033v-14A2.31,2.31,0,0,1,6.34,3.828h8.616a1.914,1.914,0,0,0,0-3.828H6.34A6.142,6.142,0,0,0,.2,6.135V91.859A6.145,6.145,0,0,0,6.34,98H91.986a6.148,6.148,0,0,0,6.141-6.141V6.135A6.145,6.145,0,0,0,91.986,0Zm0,94.172H6.34a2.312,2.312,0,0,1-2.307-2.313V23.968H94.3V91.859A2.315,2.315,0,0,1,91.986,94.172Z" transform="translate(-0.205 0)"/><path class="a" d="M59.965,382.613a7.972,7.972,0,1,0,7.969,7.974A7.983,7.983,0,0,0,59.965,382.613Zm0,12.115a4.144,4.144,0,1,1,4.141-4.141A4.148,4.148,0,0,1,59.965,394.728Z" transform="translate(-42.079 -309.378)"/><path class="a" d="M168.211,382.613a7.972,7.972,0,1,0,7.969,7.974A7.98,7.98,0,0,0,168.211,382.613Zm0,12.115a4.144,4.144,0,1,1,4.141-4.141A4.145,4.145,0,0,1,168.211,394.728Z" transform="translate(-129.61 -309.378)"/><path class="a" d="M276.433,382.613a7.972,7.972,0,1,0,7.974,7.974A7.98,7.98,0,0,0,276.433,382.613Zm0,12.115a4.144,4.144,0,1,1,4.146-4.141A4.145,4.145,0,0,1,276.433,394.728Z" transform="translate(-217.118 -309.378)"/><path class="a" d="M384.659,382.613a7.972,7.972,0,1,0,7.969,7.974A7.983,7.983,0,0,0,384.659,382.613Zm0,12.115a4.144,4.144,0,1,1,4.141-4.141A4.148,4.148,0,0,1,384.659,394.728Z" transform="translate(-304.624 -309.378)"/><path class="a" d="M52,188.363a1.93,1.93,0,0,0,1.91,1.78H96.748a1.934,1.934,0,0,0,1.917-1.914v-32.4a1.914,1.914,0,0,0-1.914-1.914H53.906a1.914,1.914,0,0,0-1.914,1.914v32.4c0,.045,0,.09.007.135Zm31.731-2.048-3.566-5.62,4.77-7.514,8.335,13.135Zm-4.534,0H57.388l10.906-17.182Zm15.641-28.568V181.64L86.55,168.582a1.914,1.914,0,0,0-3.232,0l-5.421,8.54L69.91,164.535a1.914,1.914,0,0,0-1.616-.889h0a1.914,1.914,0,0,0-1.616.888L55.82,181.641V157.746Z" transform="translate(-42.08 -124.457)"/><path class="a" d="M329.959,157.746h21.349a1.914,1.914,0,0,0,0-3.828H329.959a1.914,1.914,0,0,0,0,3.828Z" transform="translate(-265.294 -124.457)"/><path class="a" d="M329.959,213.162h21.349a1.914,1.914,0,0,0,0-3.828H329.959a1.914,1.914,0,0,0,0,3.828Z" transform="translate(-265.294 -169.266)"/><path class="a" d="M329.959,268.551h21.349a1.914,1.914,0,0,0,0-3.828H329.959a1.914,1.914,0,1,0,0,3.828Z" transform="translate(-265.294 -214.053)"/><path class="a" d="M329.959,323.938h21.349a1.914,1.914,0,0,0,0-3.828H329.959a1.914,1.914,0,0,0,0,3.828Z" transform="translate(-265.294 -258.839)"/><path class="a" d="M114.083,3.828h.011a1.919,1.919,0,1,0-.011,0Z" transform="translate(-90.738 0)"/></svg>