<svg width="40" height="40" viewBox="0 0 40 40" fill="none" xmlns="http://www.w3.org/2000/svg">
<g clip-path="url(#clip0_22_8)">
<path d="M32.0833 33.3333H7.91663C7.22663 33.3333 6.66663 32.7733 6.66663 32.0833C6.66663 31.3933 7.22663 30.8333 7.91663 30.8333H32.0833C32.7733 30.8333 33.3333 31.3933 33.3333 32.0833C33.3333 32.7733 32.7733 33.3333 32.0833 33.3333Z" fill="white"/>
<path d="M32.0833 16.6667H26.25C25.56 16.6667 25 16.1067 25 15.4167C25 14.7267 25.56 14.1667 26.25 14.1667H32.0833C32.7733 14.1667 33.3333 14.7267 33.3333 15.4167C33.3333 16.1067 32.7733 16.6667 32.0833 16.6667Z" fill="white"/>
<path d="M32.0833 21.6667H26.25C25.56 21.6667 25 21.1067 25 20.4167C25 19.7267 25.56 19.1667 26.25 19.1667H32.0833C32.7733 19.1667 33.3333 19.7267 33.3333 20.4167C33.3333 21.1067 32.7733 21.6667 32.0833 21.6667Z" fill="white"/>
<path d="M32.0833 26.6667H26.25C25.56 26.6667 25 26.1067 25 25.4167C25 24.7267 25.56 24.1667 26.25 24.1667H32.0833C32.7733 24.1667 33.3333 24.7267 33.3333 25.4167C33.3333 26.1067 32.7733 26.6667 32.0833 26.6667Z" fill="white"/>
<path d="M7.9167 25.2499C7.5967 25.2499 7.2767 25.1282 7.03336 24.8832C6.54503 24.3949 6.54503 23.6032 7.03336 23.1149L9.60003 20.5483C10.74 19.4083 12.595 19.4083 13.7334 20.5483C13.8267 20.6399 14.0884 20.8466 14.3584 20.5166L15.2234 19.4349C16.3234 18.0333 18.67 18.0249 19.7834 19.4433L21.3917 21.4499C21.825 21.9883 21.7367 22.7749 21.1984 23.2083C20.665 23.6399 19.8734 23.5532 19.4417 23.0149L17.825 20.9983C17.59 20.6999 17.4 20.7099 17.1817 20.9883L16.31 22.0799C15.2717 23.3782 13.1417 23.4899 11.9667 22.3166C11.755 22.1066 11.58 22.1066 11.3684 22.3166L8.8017 24.8832C8.5567 25.1282 8.2367 25.2499 7.9167 25.2499Z" fill="white"/>
<path d="M18.75 28.3333H9.58329C7.97496 28.3333 6.66663 27.0249 6.66663 25.4166V16.2499C6.66663 14.6416 7.97496 13.3333 9.58329 13.3333H18.75C20.3583 13.3333 21.6666 14.6416 21.6666 16.2499V25.4166C21.6666 27.0249 20.3583 28.3333 18.75 28.3333ZM9.58329 15.8333C9.35329 15.8333 9.16663 16.0199 9.16663 16.2499V25.4166C9.16663 25.6466 9.35329 25.8333 9.58329 25.8333H18.75C18.98 25.8333 19.1666 25.6466 19.1666 25.4166V16.2499C19.1666 16.0199 18.98 15.8333 18.75 15.8333H9.58329Z" fill="white"/>
<path d="M35.4167 38.3334H4.58333C2.055 38.3334 0 36.2784 0 33.7501V6.25008C0 3.72175 2.055 1.66675 4.58333 1.66675H35.4167C37.945 1.66675 40 3.72175 40 6.25008V33.7501C40 36.2784 37.945 38.3334 35.4167 38.3334ZM4.58333 4.16675C3.435 4.16675 2.5 5.10175 2.5 6.25008V33.7501C2.5 34.8984 3.435 35.8334 4.58333 35.8334H35.4167C36.565 35.8334 37.5 34.8984 37.5 33.7501V6.25008C37.5 5.10175 36.565 4.16675 35.4167 4.16675H4.58333Z" fill="white"/>
<path d="M38.75 10H1.25C0.56 10 0 9.44 0 8.75C0 8.06 0.56 7.5 1.25 7.5H38.75C39.44 7.5 40 8.06 40 8.75C40 9.44 39.44 10 38.75 10Z" fill="white"/>
</g>
<defs>
<clipPath id="clip0_22_8">
<rect width="40" height="40" fill="white"/>
</clipPath>
</defs>
</svg>
