<svg width="15" height="15" viewBox="0 0 15 15" fill="none" xmlns="http://www.w3.org/2000/svg">
<g clip-path="url(#clip0)">
<path d="M9.15306 5.84667C8.97538 5.66793 8.77837 5.50949 8.56568 5.37426C8.00234 5.01353 7.34744 4.82184 6.67851 4.82184C5.75005 4.82012 4.85932 5.18901 4.20395 5.84667L1.02452 9.02859C0.370267 9.68411 0.00253968 10.5723 0.00195385 11.4984C0.000723602 13.4311 1.56642 14.9988 3.49908 15C4.4261 15.0032 5.31601 14.6361 5.97115 13.9802L8.59567 11.3557C8.64336 11.3084 8.66999 11.2439 8.66961 11.1767C8.66882 11.0387 8.55625 10.9274 8.4182 10.9282H8.31822C7.76989 10.9302 7.22644 10.8249 6.71852 10.6183C6.62493 10.5798 6.51738 10.6015 6.44608 10.6733L4.55891 12.5629C3.9729 13.149 3.0228 13.149 2.43679 12.5629C1.85078 11.9769 1.85078 11.0268 2.43679 10.4408L5.62873 7.25141C6.21427 6.6666 7.16282 6.6666 7.74836 7.25141C8.14297 7.6228 8.75851 7.6228 9.15309 7.25141C9.32287 7.08149 9.4258 6.85612 9.44305 6.61651C9.4613 6.33019 9.3557 6.04978 9.15306 5.84667Z" fill="#AAAAAA"/>
<path d="M13.9739 1.02524C12.6072 -0.341421 10.3914 -0.341421 9.02475 1.02524L6.40271 3.64476C6.33071 3.71711 6.30994 3.82593 6.35022 3.91972C6.39003 4.01377 6.48306 4.07414 6.58517 4.07218H6.67764C7.22534 4.07119 7.76791 4.17731 8.27486 4.38463C8.36844 4.42315 8.476 4.40142 8.5473 4.32965L10.4295 2.44998C11.0155 1.86397 11.9656 1.86397 12.5516 2.44998C13.1376 3.03599 13.1376 3.98609 12.5516 4.5721L10.207 6.91417L10.187 6.93667L9.36714 7.75153C8.7816 8.33634 7.83305 8.33634 7.24751 7.75153C6.85289 7.38014 6.23736 7.38014 5.84277 7.75153C5.67191 7.92274 5.5689 8.15007 5.55281 8.39141C5.53454 8.67773 5.64013 8.95814 5.84277 9.16128C6.13209 9.45182 6.47058 9.68876 6.84258 9.86114C6.89507 9.88613 6.94756 9.90613 7.00006 9.92863C7.05255 9.95113 7.10753 9.96861 7.16002 9.98862C7.21251 10.0086 7.26749 10.0261 7.31998 10.0411L7.46746 10.0811C7.56743 10.1061 7.66743 10.1261 7.7699 10.1436C7.89333 10.1619 8.01765 10.1736 8.14234 10.1786H8.3173H8.3323L8.48227 10.1611C8.53725 10.1586 8.59475 10.1461 8.65975 10.1461H8.74472L8.91719 10.1211L8.99719 10.1061L9.14215 10.0761H9.16966C9.78364 9.92189 10.3443 9.60399 10.7919 9.15627L13.9738 5.97435C15.3405 4.60769 15.3405 2.3919 13.9739 1.02524Z" fill="#AAAAAA"/>
</g>
<defs>
<clipPath id="clip0">
<rect width="15" height="15" fill="white"/>
</clipPath>
</defs>
</svg>
