<svg xmlns="http://www.w3.org/2000/svg" width="126.5" height="635.388" viewBox="0 0 126.5 635.388"><defs><style>.a,.d,.f,.g{fill:none;}.a,.d,.g{stroke:#8b8b8b;}.a,.f{stroke-linecap:round;stroke-linejoin:round;}.a,.g{stroke-width:2px;}.b,.c{fill:#8b8b8b;}.b{font-size:14px;}.b,.e{font-family:OpenSans-Semibold, Open Sans;font-weight:600;}.e{fill:#00e61f;font-size:13px;}.f{stroke:#00e61f;stroke-width:3px;}</style></defs><g transform="translate(-33.5 -152)"><g transform="translate(37 152)"><g transform="translate(0 3)"><path class="a" d="M4.509,10.5H16.58a1.509,1.509,0,0,1,1.509,1.509v7.544a1.509,1.509,0,0,1-1.509,1.509H4.509A1.509,1.509,0,0,1,3,19.553V12.009A1.509,1.509,0,0,1,4.509,10.5Z" transform="translate(-3 -7.482)"/><path class="a" d="M18.035,18.08V6.009A1.509,1.509,0,0,0,16.527,4.5H13.509A1.509,1.509,0,0,0,12,6.009V18.08" transform="translate(-7.473 -4.5)"/></g><text class="b" transform="translate(37)"><tspan x="0" y="15">My Job Feed</tspan></text></g><g transform="translate(37.5 221.5)"><path class="a" d="M22.588,23.9l-7.544-5.389L7.5,23.9V6.655A2.155,2.155,0,0,1,9.655,4.5H20.433a2.155,2.155,0,0,1,2.155,2.155Z" transform="translate(-7.5 -4.5)"/><text class="b" transform="translate(36.5 15.5)"><tspan x="0" y="0">Saved Jobs</tspan></text></g><g transform="translate(35 373)"><path class="c" d="M17.092,10.324h-7v1.4h7Zm-4.2-2.8H10.1v1.4h2.8Zm8.4-.6v-2.2H18.211l-3.918-2.8-3.918,2.8H7.3v2.2l-2.8,2V22.917h19.59V8.924l-2.8-2ZM8.7,6.126H19.891v5.352l-5.6,4.617L8.7,11.478V6.126Zm-2.8,5.6,5.51,4.19L5.9,20.119v-8.4Zm1.4,9.795,5.553-4.509,1.443,1.1,1.44-1.1,5.556,4.507H7.3Zm15.392-1.4-5.518-4.2,5.518-4.2v8.4Z" transform="translate(-4.499 -1.928)"/><text class="b" transform="translate(39 16)"><tspan x="0" y="0">Proposals</tspan></text></g><g transform="translate(35.5 447.5)"><text class="b" transform="translate(38.5 18.5)"><tspan x="0" y="0">All Contracts</tspan></text><path class="d" d="M11.427,6.938V0H1.224A1.221,1.221,0,0,0,0,1.224V24.9A1.221,1.221,0,0,0,1.224,26.12H18.365A1.221,1.221,0,0,0,19.59,24.9V8.162H12.652A1.228,1.228,0,0,1,11.427,6.938Zm3.265,12.04a.614.614,0,0,1-.612.612H5.51a.614.614,0,0,1-.612-.612V18.57a.614.614,0,0,1,.612-.612H14.08a.614.614,0,0,1,.612.612Zm0-3.265a.614.614,0,0,1-.612.612H5.51a.614.614,0,0,1-.612-.612V15.3a.614.614,0,0,1,.612-.612H14.08a.614.614,0,0,1,.612.612Zm0-3.673v.408a.614.614,0,0,1-.612.612H5.51a.614.614,0,0,1-.612-.612V12.04a.614.614,0,0,1,.612-.612H14.08A.614.614,0,0,1,14.692,12.04Zm4.9-5.821V6.53H13.06V0h.311a1.223,1.223,0,0,1,.867.357l4.994,5A1.22,1.22,0,0,1,19.59,6.219Z"/></g><g transform="translate(35 524.635)"><text class="e" transform="translate(39 17.365)"><tspan x="0" y="0">Profile</tspan></text><path class="f" d="M28.871,31.076V28.218A5.718,5.718,0,0,0,23.153,22.5H11.718A5.718,5.718,0,0,0,6,28.218v2.859" transform="translate(-6 -5.347)"/><path class="f" d="M23.435,10.218A5.718,5.718,0,1,1,17.718,4.5,5.718,5.718,0,0,1,23.435,10.218Z" transform="translate(-6.282 -4.5)"/></g><g transform="translate(38.5 601)"><text class="b" transform="translate(36.5 19)"><tspan x="0" y="0">Transaction</tspan></text><path class="g" d="M16.81,15.067c-3.036-.789-4.013-1.605-4.013-2.876,0-1.458,1.351-2.474,3.611-2.474,2.381,0,3.264,1.137,3.344,2.809h2.956a5.332,5.332,0,0,0-4.294-5.1V4.5H14.4V7.389c-2.595.562-4.681,2.247-4.681,4.829,0,3.09,2.555,4.628,6.287,5.524,3.344.8,4.013,1.98,4.013,3.224,0,.923-.655,2.394-3.611,2.394-2.755,0-3.839-1.231-3.986-2.809H9.48c.161,2.929,2.354,4.574,4.922,5.123v2.9h4.013V25.7c2.608-.495,4.681-2.006,4.681-4.748C23.1,17.153,19.846,15.856,16.81,15.067Z" transform="translate(-9.48 -4.5)"/></g><g transform="translate(38 682)"><text class="b" transform="translate(40 15)"><tspan x="0" y="0">Reports</tspan></text><path class="a" d="M21.36,16.727A9.558,9.558,0,1,1,8.734,4.245" transform="translate(-2.999 -3.452)"/><path class="a" d="M27.558,12.558A9.558,9.558,0,0,0,18,3v9.558Z" transform="translate(-8.441 -3)"/></g><g transform="translate(36 763)"><text class="b" transform="translate(42 19)"><tspan x="0" y="0">Settings</tspan></text><path class="a" d="M19.879,16.689A3.189,3.189,0,1,1,16.689,13.5,3.189,3.189,0,0,1,19.879,16.689Z" transform="translate(-4.995 -4.995)"/><path class="a" d="M21.061,16.383a1.754,1.754,0,0,0,.351,1.935l.064.064a2.127,2.127,0,1,1-3.009,3.009l-.064-.064a1.768,1.768,0,0,0-3,1.254v.181a2.126,2.126,0,1,1-4.252,0v-.1A1.754,1.754,0,0,0,10,21.061a1.754,1.754,0,0,0-1.935.351l-.064.064A2.127,2.127,0,1,1,5,18.467l.064-.064a1.768,1.768,0,0,0-1.254-3H3.626a2.126,2.126,0,1,1,0-4.252h.1A1.754,1.754,0,0,0,5.327,10,1.754,1.754,0,0,0,4.976,8.07l-.064-.064A2.127,2.127,0,1,1,7.921,5l.064.064a1.754,1.754,0,0,0,1.935.351H10a1.754,1.754,0,0,0,1.063-1.605V3.626a2.126,2.126,0,1,1,4.252,0v.1a1.768,1.768,0,0,0,3,1.254l.064-.064a2.127,2.127,0,1,1,3.009,3.009l-.064.064a1.754,1.754,0,0,0-.351,1.935V10a1.754,1.754,0,0,0,1.605,1.063h.181a2.126,2.126,0,1,1,0,4.252h-.1a1.754,1.754,0,0,0-1.605,1.063Z" transform="translate(-1.5 -1.5)"/></g><g transform="translate(35 295)"><g transform="translate(0 1)"><path class="d" d="M23.354,3H5.262a2.258,2.258,0,0,0-2.25,2.262L3,25.615l4.523-4.523H23.354a2.268,2.268,0,0,0,2.262-2.262V5.262A2.268,2.268,0,0,0,23.354,3ZM21.092,16.569H7.523v-1.7H21.092Zm0-3.392H7.523V11.51H21.092Zm0-3.18H7.523V8.523H21.092Z" transform="translate(-3 -3)"/></g><text class="b" transform="translate(40 15)"><tspan x="0" y="0">Messages</tspan></text></g></g></svg>