<svg width="15" height="15" viewBox="0 0 15 15" fill="none" xmlns="http://www.w3.org/2000/svg">
<path d="M13.3847 6.11914H7.73628C6.84513 6.11914 6.12015 6.84412 6.12015 7.73528V10.8041L4.65668 11.8494C4.54121 11.9318 4.47266 12.065 4.47266 12.2069C4.47266 12.349 4.54121 12.4822 4.65668 12.5646L6.13777 13.6225C6.25347 14.4009 6.92627 15 7.73628 15H13.3847C14.2759 15 15.0009 14.275 15.0009 13.3837V7.73528C15.0009 6.84412 14.2759 6.11914 13.3847 6.11914ZM11.4855 12.2941C11.3819 12.2941 11.3019 12.2613 11.2785 12.1718L11.0995 11.5457H10.0214L9.84268 12.1718C9.81911 12.2613 9.73911 12.2941 9.63554 12.2941C9.47075 12.2941 9.24953 12.1907 9.24953 12.0401C9.24953 12.0306 9.25423 12.0118 9.25892 11.9929L10.1675 9.03212C10.2098 8.8909 10.384 8.82487 10.5582 8.82487C10.737 8.82487 10.9112 8.8909 10.9536 9.03212L11.8621 11.9929C11.8668 12.0118 11.8715 12.0259 11.8715 12.0401C11.8715 12.1859 11.6503 12.2941 11.4855 12.2941Z" fill="#AAAAAA"/>
<path d="M10.1484 11.0655H10.9676L10.5579 9.62048L10.1484 11.0655Z" fill="#AAAAAA"/>
<path d="M5.24036 7.73529C5.24036 7.14523 5.4467 6.60278 5.79037 6.17512C5.289 6.17512 4.8238 6.01822 4.44031 5.75169C4.05682 6.01833 3.59161 6.17512 3.09013 6.17512C2.95338 6.17512 2.84237 6.06411 2.84237 5.92724C2.84237 5.79037 2.95338 5.67947 3.09013 5.67947C3.44135 5.67947 3.77003 5.5822 4.05144 5.41374C3.71201 5.04742 3.48633 4.57443 3.43174 4.05098H3.09025C2.95338 4.05098 2.84237 3.94009 2.84237 3.80322C2.84237 3.66634 2.95338 3.55534 3.09025 3.55534H4.19266V2.95361C4.19266 2.81662 4.30355 2.70573 4.44042 2.70573C4.57729 2.70573 4.68819 2.81662 4.68819 2.95361V3.55534H5.7906C5.92747 3.55534 6.03848 3.66634 6.03848 3.80322C6.03848 3.94009 5.92747 4.05098 5.7906 4.05098H5.4491C5.39452 4.57443 5.16884 5.04742 4.82941 5.41374C5.1107 5.58243 5.43949 5.67947 5.7906 5.67947C5.9214 5.67947 6.02829 5.78087 6.03756 5.90939C6.48331 5.49465 7.08012 5.24025 7.73552 5.24025H8.88084V4.19586L10.3443 3.15056C10.4597 3.06816 10.5282 2.93495 10.5282 2.79305C10.5282 2.65102 10.4597 2.51781 10.3443 2.43542L8.86322 1.37753C8.74741 0.599098 8.07461 0 7.2646 0H1.61625C0.724983 0 0 0.724983 0 1.61613V7.26471C0 8.15586 0.724983 8.88084 1.61625 8.88084H5.24036V7.73529Z" fill="#AAAAAA"/>
<path d="M4.44079 5.10406C4.71201 4.82265 4.89615 4.45724 4.95005 4.05109H3.93164C3.98554 4.45724 4.16979 4.82265 4.44079 5.10406Z" fill="#AAAAAA"/>
</svg>
