<svg xmlns="http://www.w3.org/2000/svg" xmlns:xlink="http://www.w3.org/1999/xlink" width="452.926" height="427.25" viewBox="0 0 452.926 427.25"><defs><style>.a,.g,.v{fill:#92e3a9;}.b,.h,.o,.w{fill:#fff;}.b,.p{opacity:0.7;}.c{fill:none;}.c,.g,.k,.w{stroke:#263238;stroke-linecap:round;stroke-linejoin:round;stroke-miterlimit:10;}.d{clip-path:url(#a);}.e,.o,.u{opacity:0.2;}.f{fill:#263238;}.i{clip-path:url(#b);}.j,.v{opacity:0.4;}.k{fill:#999;}.l{fill:#757575;}.m{clip-path:url(#c);}.n{clip-path:url(#d);}.p,.q{clip-path:url(#e);}.r{clip-path:url(#h);}.s{clip-path:url(#i);}.t{clip-path:url(#j);}.u{fill:rgba(0,0,0,0.7);}</style><clipPath id="a"><path d="M372.9,331.8H123.6a8.749,8.749,0,0,1-8.8-8.8V98.4a8.749,8.749,0,0,1,8.8-8.8H372.9a8.749,8.749,0,0,1,8.8,8.8V323A8.749,8.749,0,0,1,372.9,331.8Z"/></clipPath><clipPath id="b"><path d="M350.8,105.1h-205a231.91,231.91,0,0,0-9-41.9H359.9A220.2,220.2,0,0,0,350.8,105.1Z"/></clipPath><clipPath id="c"><rect width="8.2" height="23" transform="translate(0 -14)"/></clipPath><clipPath id="d"><rect width="8.2" height="23" transform="translate(8.185 8.933) rotate(180)"/></clipPath><clipPath id="e"><path d="M350.8,150.3h-205a107.726,107.726,0,0,1-9-41.9H359.9C359.8,127.8,350.8,150.3,350.8,150.3Z"/></clipPath><clipPath id="h"><rect width="6.1" height="42.7" transform="translate(-0.1 -30)"/></clipPath><clipPath id="i"><rect width="6.1" height="42.7" transform="translate(0.1 -30)"/></clipPath><clipPath id="j"><path d="M388,152.5v69.8a4.375,4.375,0,0,1-4.4,4.4H112.9a4.439,4.439,0,0,1-4.4-4.4V152.5a4.439,4.439,0,0,1,4.4-4.4H237.6v4.4s-21.3,18.5-58,25.3c5.3,23.8,34,42,68.7,42s63.4-18.2,68.7-42c-36.8-6.8-58.1-25.3-58.1-25.3V148H383.6A4.461,4.461,0,0,1,388,152.5Z"/></clipPath></defs><g transform="translate(0.502)"><g transform="translate(-26.305 -27.65)"><path class="a" d="M232.7,28.8c124-11,124.2,58.9,180.1,124.1s67.8,94.8,46.8,169.9S367.5,457,279.7,423.6s-138.1-1.3-193.5-31c-55.4-29.6-76-86.9-35.4-154.4S79.8,42.5,232.7,28.8Z"/><path class="b" d="M232.7,28.8c124-11,124.2,58.9,180.1,124.1s67.8,94.8,46.8,169.9S367.5,457,279.7,423.6s-138.1-1.3-193.5-31c-55.4-29.6-76-86.9-35.4-154.4S79.8,42.5,232.7,28.8Z"/></g><g transform="translate(-26.305 -27.65)"><path class="c" d="M426.9,323.7l-.8,7,13.6-15.9a41.534,41.534,0,0,0,4.9.3"/><path class="c" d="M409.9,275.4a20.423,20.423,0,0,0-3.3,9c-1.3,11.6,7.8,22.6,21.6,27.7l-.7,6.3"/><path class="c" d="M415.2,269.6a27.253,27.253,0,0,0-2.5,2.3"/><path class="c" d="M466.2,269.6a46.494,46.494,0,0,0-44.2-4.3"/><path class="c" d="M454.1,314.1c13-2.7,22.8-11,24-21.8.8-7.5-2.7-14.8-9-20.4"/><path class="c" d="M422.1,277.4a8.52,8.52,0,0,0,6.4-1.4c1.6,1.3,3.2,2.5,4.9,3.8-.3.1-.3-.6.1-.6s.6.3.9.6c1.1,1.2,3.1,1.2,4.7.9a16.323,16.323,0,0,1,4.9-.9,15.293,15.293,0,0,1,2.9.7c6.7,2.1,13.6,3.1,20.6,4.1"/><path class="c" d="M416.3,284.5c1-.1,6.6,0,7.4-.7.5.8.9,1.6,1.4,2.4l1.5-1.5c.3,1,.5,2,.8,2.9,1.1.3,1-1.9,1.9-2.6a1.436,1.436,0,0,1,1.8.5,4.552,4.552,0,0,1,.5,2c2.3.2,4.6.4,6.8.6.4,0,.9.1,1.3.1a4.469,4.469,0,0,1,2-1.6c-.2,1.6,1.7,2.5,3.3,2.8,7.8,1.6,15.6,3,23.5,4.1"/><path class="c" d="M419.4,295.3c.6.4,1.4-.4,2.2-.5s1.4.5,2.1.8,1.8.2,1.8-.6c.2,1,1.4,1.4,2.4,1.5,8.8,1.2,17.5,2.5,26.3,3.7"/><path class="c" d="M68,261.2l10.5,14.2-2.1-18.5a51.281,51.281,0,0,0,7.2-4.3c10.8-7.8,15.1-20.3,11.2-30.5-2.8-7.1-9.3-11.9-17.5-13.8"/><path class="c" d="M26.4,238.8a20.12,20.12,0,0,0,1.3,9.4c4.3,10.9,17.4,16.4,32,14.5"/><path class="c" d="M28.4,231.3c-.5,1.1-.8,2.1-1.2,3.2"/><path class="c" d="M73.6,207.5a45.808,45.808,0,0,0-22.1,2.9,44.274,44.274,0,0,0-19,13.8"/><path class="c" d="M38.1,234.9a8.321,8.321,0,0,0,5-4.2c2,.4,4,.7,6.1,1.1-.3.3-.6-.4-.3-.6s.7,0,1,.1c1.6.5,3.3-.3,4.6-1.4a18.986,18.986,0,0,1,3.9-3.1,13.79,13.79,0,0,1,2.9-.8c6.9-1.3,13.5-3.6,20.1-5.9"/><path class="c" d="M36.4,243.9c.9-.5,5.8-3.1,6.2-4,.8.5,1.5,1,2.3,1.5a15.873,15.873,0,0,1,.7-2c.7.8,1.4,1.5,2,2.3,1.1-.3,0-2.2.5-3.2a1.377,1.377,0,0,1,1.8-.4,3.182,3.182,0,0,1,1.3,1.5l6.3-2.7c.4-.2.8-.3,1.2-.5a4.4,4.4,0,0,1,1-2.3c.5,1.5,2.7,1.4,4.2.9,7.6-2.2,15.2-4.6,22.7-7.3"/><path class="c" d="M44.1,252.1c.8.1,1.1-1,1.7-1.4s1.5-.2,2.2-.2c.8,0,1.7-.7,1.4-1.3.6.8,1.9.6,2.8.2,8.3-3,16.6-6,25-8.9"/></g><g transform="translate(-26.305 -27.65)"><path class="a" d="M372.9,331.8H123.6a8.749,8.749,0,0,1-8.8-8.8V98.4a8.749,8.749,0,0,1,8.8-8.8H372.9a8.749,8.749,0,0,1,8.8,8.8V323A8.749,8.749,0,0,1,372.9,331.8Z"/><g class="d"><path class="e" d="M381.7,222.3v101a8.493,8.493,0,0,1-8.5,8.5H123.3a8.493,8.493,0,0,1-8.5-8.5v-20h.5v13.5a9.816,9.816,0,0,0,9.8,9.8H366.5a9.816,9.816,0,0,0,9.8-9.8V237.3a6.744,6.744,0,0,0-6.8-6.8H114.8v-8.2H381.7Z"/></g><path class="c" d="M372.9,331.8H123.6a8.749,8.749,0,0,1-8.8-8.8V98.4a8.749,8.749,0,0,1,8.8-8.8H372.9a8.749,8.749,0,0,1,8.8,8.8V323A8.749,8.749,0,0,1,372.9,331.8Z"/><path class="f" d="M358.5,251V239.4a4.268,4.268,0,0,0-4.3-4.3H142.3a4.268,4.268,0,0,0-4.3,4.3V251a4.268,4.268,0,0,1-4.3,4.3h0a4.268,4.268,0,0,0-4.3,4.3v22.8a19.888,19.888,0,0,0,19.9,19.9h0a3.159,3.159,0,0,1,3.2,3.2v6.8a9.5,9.5,0,0,0,9.5,9.5H334.5a9.5,9.5,0,0,0,9.5-9.5v-6.8a3.159,3.159,0,0,1,3.2-3.2h0a19.888,19.888,0,0,0,19.9-19.9V259.6a4.268,4.268,0,0,0-4.3-4.3h0A4.268,4.268,0,0,1,358.5,251Z"/><path class="g" d="M154.3,241.8h-7.4a3.372,3.372,0,0,0-3.4,3.4v1.9c0,3.9,3.2,8.9,7.1,8.9s7.1-5,7.1-8.9v-1.9A3.372,3.372,0,0,0,154.3,241.8Z"/><path class="g" d="M172,241.8h-7.4a3.372,3.372,0,0,0-3.4,3.4v1.9c0,3.9,3.2,8.9,7.1,8.9s7.1-5,7.1-8.9v-1.9A3.311,3.311,0,0,0,172,241.8Z"/><path class="g" d="M189.8,241.8h-7.4a3.372,3.372,0,0,0-3.4,3.4v1.9c0,3.9,3.2,8.9,7.1,8.9s7.1-5,7.1-8.9v-1.9A3.372,3.372,0,0,0,189.8,241.8Z"/><path class="g" d="M207.6,241.8h-7.4a3.372,3.372,0,0,0-3.4,3.4v1.9c0,3.9,3.2,8.9,7.1,8.9s7.1-5,7.1-8.9v-1.9A3.372,3.372,0,0,0,207.6,241.8Z"/><path class="g" d="M225.3,241.8h-7.4a3.372,3.372,0,0,0-3.4,3.4v1.9c0,3.9,3.2,8.9,7.1,8.9s7.1-5,7.1-8.9v-1.9A3.372,3.372,0,0,0,225.3,241.8Z"/><path class="g" d="M243.1,241.8h-7.4a3.372,3.372,0,0,0-3.4,3.4v1.9c0,3.9,3.2,8.9,7.1,8.9s7.1-5,7.1-8.9v-1.9A3.372,3.372,0,0,0,243.1,241.8Z"/><path class="g" d="M260.8,241.8h-7.4a3.372,3.372,0,0,0-3.4,3.4v1.9c0,3.9,3.2,8.9,7.1,8.9s7.1-5,7.1-8.9v-1.9A3.311,3.311,0,0,0,260.8,241.8Z"/><path class="g" d="M278.6,241.8h-7.4a3.372,3.372,0,0,0-3.4,3.4v1.9c0,3.9,3.2,8.9,7.1,8.9s7.1-5,7.1-8.9v-1.9A3.372,3.372,0,0,0,278.6,241.8Z"/><path class="g" d="M296.4,241.8H289a3.372,3.372,0,0,0-3.4,3.4v1.9c0,3.9,3.2,8.9,7.1,8.9s7.1-5,7.1-8.9v-1.9A3.372,3.372,0,0,0,296.4,241.8Z"/><path class="g" d="M314.1,241.8h-7.4a3.372,3.372,0,0,0-3.4,3.4v1.9c0,3.9,3.2,8.9,7.1,8.9s7.1-5,7.1-8.9v-1.9A3.311,3.311,0,0,0,314.1,241.8Z"/><path class="g" d="M331.9,241.8h-7.4a3.372,3.372,0,0,0-3.4,3.4v1.9c0,3.9,3.2,8.9,7.1,8.9s7.1-5,7.1-8.9v-1.9A3.372,3.372,0,0,0,331.9,241.8Z"/><path class="g" d="M349.7,241.8h-7.4a3.372,3.372,0,0,0-3.4,3.4v1.9c0,3.9,3.2,8.9,7.1,8.9s7.1-5,7.1-8.9v-1.9A3.372,3.372,0,0,0,349.7,241.8Z"/><path class="g" d="M154.3,279.4h-7.4a3.372,3.372,0,0,0-3.4,3.4v1.9c0,3.9,3.2,8.9,7.1,8.9s7.1-5,7.1-8.9v-1.9A3.372,3.372,0,0,0,154.3,279.4Z"/><path class="g" d="M172,279.4h-7.4a3.372,3.372,0,0,0-3.4,3.4v1.9c0,3.9,3.2,8.9,7.1,8.9s7.1-5,7.1-8.9v-1.9A3.311,3.311,0,0,0,172,279.4Z"/><path class="g" d="M189.8,279.4h-7.4a3.372,3.372,0,0,0-3.4,3.4v1.9c0,3.9,3.2,8.9,7.1,8.9s7.1-5,7.1-8.9v-1.9A3.372,3.372,0,0,0,189.8,279.4Z"/><path class="g" d="M207.6,279.4h-7.4a3.372,3.372,0,0,0-3.4,3.4v1.9c0,3.9,3.2,8.9,7.1,8.9s7.1-5,7.1-8.9v-1.9A3.372,3.372,0,0,0,207.6,279.4Z"/><path class="g" d="M225.3,279.4h-7.4a3.372,3.372,0,0,0-3.4,3.4v1.9c0,3.9,3.2,8.9,7.1,8.9s7.1-5,7.1-8.9v-1.9A3.372,3.372,0,0,0,225.3,279.4Z"/><path class="g" d="M243.1,279.4h-7.4a3.372,3.372,0,0,0-3.4,3.4v1.9c0,3.9,3.2,8.9,7.1,8.9s7.1-5,7.1-8.9v-1.9A3.372,3.372,0,0,0,243.1,279.4Z"/><path class="g" d="M260.8,279.4h-7.4a3.372,3.372,0,0,0-3.4,3.4v1.9c0,3.9,3.2,8.9,7.1,8.9s7.1-5,7.1-8.9v-1.9A3.311,3.311,0,0,0,260.8,279.4Z"/><path class="g" d="M278.6,279.4h-7.4a3.372,3.372,0,0,0-3.4,3.4v1.9c0,3.9,3.2,8.9,7.1,8.9s7.1-5,7.1-8.9v-1.9A3.372,3.372,0,0,0,278.6,279.4Z"/><path class="g" d="M296.4,279.4H289a3.372,3.372,0,0,0-3.4,3.4v1.9c0,3.9,3.2,8.9,7.1,8.9s7.1-5,7.1-8.9v-1.9A3.372,3.372,0,0,0,296.4,279.4Z"/><path class="g" d="M314.1,279.4h-7.4a3.372,3.372,0,0,0-3.4,3.4v1.9c0,3.9,3.2,8.9,7.1,8.9s7.1-5,7.1-8.9v-1.9A3.311,3.311,0,0,0,314.1,279.4Z"/><path class="g" d="M331.9,279.4h-7.4a3.372,3.372,0,0,0-3.4,3.4v1.9c0,3.9,3.2,8.9,7.1,8.9s7.1-5,7.1-8.9v-1.9A3.372,3.372,0,0,0,331.9,279.4Z"/><path class="g" d="M349.7,279.4h-7.4a3.372,3.372,0,0,0-3.4,3.4v1.9c0,3.9,3.2,8.9,7.1,8.9s7.1-5,7.1-8.9v-1.9A3.372,3.372,0,0,0,349.7,279.4Z"/><path class="g" d="M145.4,261.2H138a3.372,3.372,0,0,0-3.4,3.4v1.9c0,3.9,3.2,8.9,7.1,8.9s7.1-5,7.1-8.9v-1.9A3.372,3.372,0,0,0,145.4,261.2Z"/><path class="g" d="M163.2,261.2h-7.4a3.372,3.372,0,0,0-3.4,3.4v1.9c0,3.9,3.2,8.9,7.1,8.9s7.1-5,7.1-8.9v-1.9A3.436,3.436,0,0,0,163.2,261.2Z"/><path class="g" d="M180.9,261.2h-7.4a3.372,3.372,0,0,0-3.4,3.4v1.9c0,3.9,3.2,8.9,7.1,8.9s7.1-5,7.1-8.9v-1.9A3.372,3.372,0,0,0,180.9,261.2Z"/><path class="g" d="M198.7,261.2h-7.4a3.372,3.372,0,0,0-3.4,3.4v1.9c0,3.9,3.2,8.9,7.1,8.9s7.1-5,7.1-8.9v-1.9A3.372,3.372,0,0,0,198.7,261.2Z"/><path class="g" d="M216.4,261.2H209a3.372,3.372,0,0,0-3.4,3.4v1.9c0,3.9,3.2,8.9,7.1,8.9s7.1-5,7.1-8.9v-1.9A3.311,3.311,0,0,0,216.4,261.2Z"/><path class="g" d="M234.2,261.2h-7.4a3.372,3.372,0,0,0-3.4,3.4v1.9c0,3.9,3.2,8.9,7.1,8.9s7.1-5,7.1-8.9v-1.9A3.372,3.372,0,0,0,234.2,261.2Z"/><path class="g" d="M252,261.2h-7.4a3.372,3.372,0,0,0-3.4,3.4v1.9c0,3.9,3.2,8.9,7.1,8.9s7.1-5,7.1-8.9v-1.9A3.372,3.372,0,0,0,252,261.2Z"/><path class="g" d="M269.7,261.2h-7.4a3.372,3.372,0,0,0-3.4,3.4v1.9c0,3.9,3.2,8.9,7.1,8.9s7.1-5,7.1-8.9v-1.9A3.311,3.311,0,0,0,269.7,261.2Z"/><path class="g" d="M287.5,261.2h-7.4a3.372,3.372,0,0,0-3.4,3.4v1.9c0,3.9,3.2,8.9,7.1,8.9s7.1-5,7.1-8.9v-1.9A3.372,3.372,0,0,0,287.5,261.2Z"/><path class="g" d="M305.3,261.2h-7.4a3.372,3.372,0,0,0-3.4,3.4v1.9c0,3.9,3.2,8.9,7.1,8.9s7.1-5,7.1-8.9v-1.9A3.436,3.436,0,0,0,305.3,261.2Z"/><path class="g" d="M323,261.2h-7.4a3.372,3.372,0,0,0-3.4,3.4v1.9c0,3.9,3.2,8.9,7.1,8.9s7.1-5,7.1-8.9v-1.9A3.372,3.372,0,0,0,323,261.2Z"/><path class="g" d="M340.8,261.2h-7.4a3.372,3.372,0,0,0-3.4,3.4v1.9c0,3.9,3.2,8.9,7.1,8.9s7.1-5,7.1-8.9v-1.9A3.372,3.372,0,0,0,340.8,261.2Z"/><path class="g" d="M358.5,261.2h-7.4a3.372,3.372,0,0,0-3.4,3.4v1.9c0,3.9,3.2,8.9,7.1,8.9s7.1-5,7.1-8.9v-1.9A3.311,3.311,0,0,0,358.5,261.2Z"/><path class="g" d="M316.1,314.5H180.4a3.159,3.159,0,0,1-3.2-3.2v-9.7a3.159,3.159,0,0,1,3.2-3.2H316.1a3.159,3.159,0,0,1,3.2,3.2v9.7A3.159,3.159,0,0,1,316.1,314.5Z"/><path class="g" d="M334.3,299.3h-7.4a3.372,3.372,0,0,0-3.4,3.4v1.9c0,3.9,3.2,8.9,7.1,8.9s7.1-5,7.1-8.9v-1.9A3.372,3.372,0,0,0,334.3,299.3Z"/><path class="g" d="M169.7,299.3h-7.4a3.372,3.372,0,0,0-3.4,3.4v1.9c0,3.9,3.2,8.9,7.1,8.9s7.1-5,7.1-8.9v-1.9A3.372,3.372,0,0,0,169.7,299.3Z"/><path class="e" d="M154.7,247.2a4.1,4.1,0,0,1,1.1.1v-2.1a1.538,1.538,0,0,0-1.5-1.5h-7.4a1.538,1.538,0,0,0-1.5,1.5v1.9c0,2.7,2,6.2,4.4,6.9C149,250.9,150.6,247.2,154.7,247.2Z"/><path class="e" d="M172.8,246.7h.7v-1.5a1.538,1.538,0,0,0-1.5-1.5h-7.4a1.538,1.538,0,0,0-1.5,1.5v1.9c0,3,2.4,6.8,5,7C166.9,250.9,168.5,246.7,172.8,246.7Z"/><path class="e" d="M191.1,246.4h.1v-1.2a1.538,1.538,0,0,0-1.5-1.5h-7.4a1.538,1.538,0,0,0-1.5,1.5v1.9c0,3.1,2.5,7,5.2,7h.4C185.1,250.9,186.7,246.4,191.1,246.4Z"/><path class="e" d="M207.8,245.9c.5,0,.9.1,1.3.1v-.9a1.538,1.538,0,0,0-1.5-1.5h-7.4a1.538,1.538,0,0,0-1.5,1.5V247c0,2.9,2.2,6.5,4.7,6.9C201.6,250.9,203.1,245.9,207.8,245.9Z"/><path class="e" d="M226.4,245.9h.4v-.7a1.538,1.538,0,0,0-1.5-1.5h-7.4a1.538,1.538,0,0,0-1.5,1.5v1.9c0,3.1,2.5,7,5.2,7h.4C220.3,250.9,221.8,245.9,226.4,245.9Z"/><path class="e" d="M244.3,246h.2v-.9a1.538,1.538,0,0,0-1.5-1.5h-7.4a1.538,1.538,0,0,0-1.5,1.5V247c0,3.1,2.5,7,5.2,7h.5C238.2,250.9,239.7,246,244.3,246Z"/><path class="e" d="M261.5,245.9a1.949,1.949,0,0,1,.8.1v-.8a1.538,1.538,0,0,0-1.5-1.5h-7.4a1.538,1.538,0,0,0-1.5,1.5v1.9c0,3,2.5,6.9,5.1,7C255.3,250.9,256.8,245.9,261.5,245.9Z"/><path class="e" d="M280.1,246.2v-1a1.538,1.538,0,0,0-1.5-1.5h-7.4a1.538,1.538,0,0,0-1.5,1.5v1.9c0,3.1,2.5,7,5.2,7a2.2,2.2,0,0,0,.8-.1C274.3,250.8,275.7,246.3,280.1,246.2Z"/><path class="e" d="M296.4,245.8a7.72,7.72,0,0,1,1.5.2v-.8a1.538,1.538,0,0,0-1.5-1.5H289a1.538,1.538,0,0,0-1.5,1.5v1.9c0,2.8,2.1,6.4,4.6,6.9C290.2,250.9,291.7,245.8,296.4,245.8Z"/><path class="e" d="M314.6,245.8a4.1,4.1,0,0,1,1.1.1v-.7a1.538,1.538,0,0,0-1.5-1.5h-7.4a1.538,1.538,0,0,0-1.5,1.5v1.9c0,3,2.4,6.8,5,7C308.4,250.9,309.8,245.8,314.6,245.8Z"/><path class="e" d="M332.6,246.3a2.2,2.2,0,0,1,.8.1v-1.2a1.538,1.538,0,0,0-1.5-1.5h-7.4a1.538,1.538,0,0,0-1.5,1.5v1.9c0,3,2.4,6.8,5,7C326.6,250.9,328.1,246.3,332.6,246.3Z"/><path class="e" d="M351.1,246.1v-.9a1.538,1.538,0,0,0-1.5-1.5h-7.4a1.538,1.538,0,0,0-1.5,1.5v1.9c0,3.1,2.5,7,5.2,7a3.6,3.6,0,0,0,1.1-.2C345.7,250.8,347,246.4,351.1,246.1Z"/><path class="e" d="M155.2,283h.6v-.2a1.538,1.538,0,0,0-1.5-1.5h-7.4a1.538,1.538,0,0,0-1.5,1.5v1.9c0,3.1,2.5,7,5.2,7a1.268,1.268,0,0,0,.6-.1C148.9,288.6,150.2,283,155.2,283Z"/><path class="e" d="M172.6,283a2.768,2.768,0,0,1,.9.1v-.3a1.538,1.538,0,0,0-1.5-1.5h-7.4a1.538,1.538,0,0,0-1.5,1.5v1.9c0,3.1,2.5,7,5.2,7h.2C166.3,288.6,167.6,283,172.6,283Z"/><path class="e" d="M190.2,283.2a3.083,3.083,0,0,1,1,.1v-.5a1.538,1.538,0,0,0-1.5-1.5h-7.4a1.538,1.538,0,0,0-1.5,1.5v1.9c0,3,2.5,6.9,5.1,7C184,288.6,185.4,283.2,190.2,283.2Z"/><path class="e" d="M208.3,283.4a2.2,2.2,0,0,1,.8.1v-.6a1.538,1.538,0,0,0-1.5-1.5h-7.4a1.538,1.538,0,0,0-1.5,1.5v1.9c0,3.1,2.5,7,5.2,7h.1C202.1,288.6,203.5,283.4,208.3,283.4Z"/><path class="e" d="M225.7,283a3.749,3.749,0,0,1,1.1.1v-.3a1.538,1.538,0,0,0-1.5-1.5h-7.4a1.538,1.538,0,0,0-1.5,1.5v1.9c0,3.1,2.5,7,5.2,7h0C219.3,288.7,220.7,283,225.7,283Z"/><path class="e" d="M243.7,283.1a2.768,2.768,0,0,1,.9.1v-.4a1.538,1.538,0,0,0-1.5-1.5h-7.4a1.538,1.538,0,0,0-1.5,1.5v1.9c0,3.1,2.5,7,5.2,7h.2C237.4,288.6,238.8,283.1,243.7,283.1Z"/><path class="e" d="M262.1,283.5h.2v-.7a1.538,1.538,0,0,0-1.5-1.5h-7.4a1.538,1.538,0,0,0-1.5,1.5v1.9c0,3.1,2.5,7,5.2,7a1.268,1.268,0,0,0,.6-.1C256,288.5,257.4,283.5,262.1,283.5Z"/><path class="e" d="M280,283.1h0l.1-.3a1.538,1.538,0,0,0-1.5-1.5h-7.4a1.538,1.538,0,0,0-1.5,1.5v1.9c0,3.1,2.5,7,5.2,7a2.92,2.92,0,0,0,.9-.2C273.8,288.5,275.2,283.1,280,283.1Z"/><path class="e" d="M297.3,282.7h.6a1.453,1.453,0,0,0-1.5-1.4H289a1.538,1.538,0,0,0-1.5,1.5v1.9c0,3.1,2.5,7,5.2,7a1.7,1.7,0,0,0,.7-.1C290.9,288.6,292.2,282.7,297.3,282.7Z"/><path class="e" d="M315.6,283h0v-.2a1.538,1.538,0,0,0-1.5-1.5h-7.4a1.538,1.538,0,0,0-1.5,1.5v1.9c0,3.1,2.5,7,5.2,7a3.553,3.553,0,0,0,1-.2C309.3,288.4,310.7,283,315.6,283Z"/><path class="e" d="M333,283h.4v-.2a1.538,1.538,0,0,0-1.5-1.5h-7.4a1.538,1.538,0,0,0-1.5,1.5v1.9c0,3.1,2.5,7,5.2,7a1.7,1.7,0,0,0,.7-.1C326.7,288.5,328,283,333,283Z"/><path class="e" d="M350.5,283.8h.6v-1a1.538,1.538,0,0,0-1.5-1.5h-7.4a1.538,1.538,0,0,0-1.5,1.5v1.9c0,3.1,2.5,7,5.2,7h0C344.4,288.6,345.9,283.8,350.5,283.8Z"/><path class="e" d="M146.7,265.1h.1v-.5a1.538,1.538,0,0,0-1.5-1.5H138a1.538,1.538,0,0,0-1.5,1.5v1.9c0,3.1,2.5,7,5.2,7a2.2,2.2,0,0,0,.8-.1C140.5,270.3,142,265.1,146.7,265.1Z"/><path class="e" d="M164.1,265.1h.5v-.5a1.538,1.538,0,0,0-1.5-1.5h-7.4a1.538,1.538,0,0,0-1.5,1.5v1.9c0,3.1,2.5,7,5.2,7h.4C157.9,270.3,159.3,265.1,164.1,265.1Z"/><path class="e" d="M182.3,265.1h0l.1-.5a1.538,1.538,0,0,0-1.5-1.5h-7.4a1.538,1.538,0,0,0-1.5,1.5v1.9c0,3.1,2.5,7,5.2,7a2.2,2.2,0,0,0,.8-.1C176.1,270.3,177.5,265.1,182.3,265.1Z"/><path class="e" d="M199.7,265h.5v-.4a1.538,1.538,0,0,0-1.5-1.5h-7.4a1.538,1.538,0,0,0-1.5,1.5v1.9c0,3.1,2.5,7,5.2,7a.749.749,0,0,0,.5-.1C193.4,270.3,194.8,265,199.7,265Z"/><path class="e" d="M217,265.1a3.4,3.4,0,0,1,1,.1v-.6a1.538,1.538,0,0,0-1.5-1.5H209a1.538,1.538,0,0,0-1.5,1.5v1.9c0,3.1,2.5,7,5.2,7h0C210.7,270.4,212.1,265.1,217,265.1Z"/><path class="e" d="M234.9,264.4a2.2,2.2,0,0,1,.8.1,1.52,1.52,0,0,0-1.5-1.4h-7.4a1.538,1.538,0,0,0-1.5,1.5v1.9c0,3.1,2.5,7,5.2,7a1.268,1.268,0,0,0,.6-.1C228.5,270.5,229.7,264.4,234.9,264.4Z"/><path class="e" d="M252.8,265.2h.7v-.6a1.538,1.538,0,0,0-1.5-1.5h-7.4a1.538,1.538,0,0,0-1.5,1.5v1.9c0,3.1,2.5,7,5.2,7h.2C246.6,270.4,248,265.2,252.8,265.2Z"/><path class="e" d="M271.2,264.6a1.538,1.538,0,0,0-1.5-1.5h-7.4a1.538,1.538,0,0,0-1.5,1.5v1.9c0,3.1,2.5,7,5.2,7a4.191,4.191,0,0,0,1.5-.4C265.5,270.1,266.7,265,271.2,264.6Z"/><path class="e" d="M289,265v-.4a1.538,1.538,0,0,0-1.5-1.5h-7.4a1.538,1.538,0,0,0-1.5,1.5v1.9c0,3.1,2.5,7,5.2,7a2.663,2.663,0,0,0,1.2-.3C283.2,270.2,284.5,265.3,289,265Z"/><path class="e" d="M306.1,264.7h.6v-.1a1.538,1.538,0,0,0-1.5-1.5h-7.4a1.538,1.538,0,0,0-1.5,1.5v1.9c0,3.1,2.5,7,5.2,7a1.268,1.268,0,0,0,.6-.1C299.8,270.4,301.1,264.7,306.1,264.7Z"/><path class="e" d="M324.5,265.3v-.7a1.538,1.538,0,0,0-1.5-1.5h-7.4a1.538,1.538,0,0,0-1.5,1.5v1.9c0,3.1,2.5,7,5.2,7,.3,0,.6-.1.9-.1C318.6,270.2,320,265.5,324.5,265.3Z"/><path class="e" d="M341.4,264.8a1.949,1.949,0,0,1,.8.1v-.3a1.538,1.538,0,0,0-1.5-1.5h-7.4a1.538,1.538,0,0,0-1.5,1.5v1.9c0,3.1,2.5,7,5.2,7h.3C335.1,270.4,336.5,264.8,341.4,264.8Z"/><path class="e" d="M359.3,265.6h.7v-1a1.538,1.538,0,0,0-1.5-1.5h-7.4a1.538,1.538,0,0,0-1.5,1.5v1.9c0,3,2.5,7,5.2,7C353.3,270.4,354.8,265.6,359.3,265.6Z"/><path class="e" d="M179.2,311.4v-9.9a1.155,1.155,0,0,1,1.2-1.2H316.2a1.155,1.155,0,0,1,1.2,1.2v9.9a1.155,1.155,0,0,1-1.2,1.2H180.4A1.216,1.216,0,0,1,179.2,311.4Z"/><path class="e" d="M335.8,303.7v-1a1.538,1.538,0,0,0-1.5-1.5h-7.4a1.538,1.538,0,0,0-1.5,1.5v1.9c0,3.1,2.5,7,5.2,7a1.952,1.952,0,0,0,.7-.1C329.7,308.4,331.3,303.7,335.8,303.7Z"/><path class="e" d="M170.3,303.1a2.768,2.768,0,0,1,.9.1v-.4a1.538,1.538,0,0,0-1.5-1.5h-7.4a1.538,1.538,0,0,0-1.5,1.5v1.9c0,3.1,2.5,7,5.2,7h.2C164,308.5,165.4,303.1,170.3,303.1Z"/><path class="e" d="M377.2,156.9H119.4v-56a6.38,6.38,0,0,1,6.4-6.4H370.9a6.38,6.38,0,0,1,6.4,6.4v56Z"/><path class="h" d="M350.8,105.1h-205a231.91,231.91,0,0,0-9-41.9H359.9A220.2,220.2,0,0,0,350.8,105.1Z"/><g class="i"><path class="e" d="M352.8,91.6c-1.5,8.1-2,13.5-2,13.5h-205s-.5-5.3-2-13.5Z"/></g><path class="c" d="M350.8,105.1h-205a231.91,231.91,0,0,0-9-41.9H359.9A220.2,220.2,0,0,0,350.8,105.1Z"/><rect class="f" width="201.1" height="82.7" transform="translate(146.9 140.3)"/><g class="j"><path class="h" d="M242.4,215.7a4.1,4.1,0,0,1,1.1.1q1.95-30.9,3.9-62Q245,184.85,242.4,215.7Z"/><path class="h" d="M239,215.5c.4,0,.7.1,1.1.1q3.45-30.75,6.9-61.8C244.4,174.5,241.7,195,239,215.5Z"/><path class="h" d="M235.7,215.1c.4,0,.7.1,1.1.1,3.3-20.3,6.6-40.7,9.9-61.4Q241.15,184.85,235.7,215.1Z"/><path class="h" d="M232.3,214.6c.4.1.7.1,1.1.2q6.3-30,12.9-61Q239.25,184.7,232.3,214.6Z"/><path class="h" d="M228.9,213.9c.4.1.7.1,1.1.2q7.8-29.4,15.8-60.4Q237.25,184.75,228.9,213.9Z"/><path class="h" d="M225.6,213.2c.4.1.7.2,1.1.3,6.1-19.2,12.4-39.1,18.7-59.7Q235.35,184.7,225.6,213.2Z"/><path class="h" d="M222.3,212.3c.4.1.7.2,1.1.3,7-18.6,14.3-38.3,21.7-58.9C237.3,174.3,229.6,193.9,222.3,212.3Z"/><path class="h" d="M219,211.3a4.875,4.875,0,0,1,1.1.4c7.9-18,16.2-37.3,24.6-57.9C235.9,174.3,227.2,193.5,219,211.3Z"/><path class="h" d="M215.7,210.1c.4.1.7.3,1.1.4,8.8-17.3,18.1-36.2,27.4-56.8C234.5,174.3,224.8,193,215.7,210.1Z"/><path class="h" d="M212.4,208.8c.4.2.7.3,1.1.5,9.6-16.5,19.9-35,30.3-55.6C233,174.2,222.3,192.6,212.4,208.8Z"/><path class="h" d="M209.2,207.3a5.36,5.36,0,0,0,1.1.5c10.3-15.7,21.7-33.7,33.1-54.2C231.6,174.1,219.8,192,209.2,207.3Z"/><path class="h" d="M206.1,205.7c.4.2.7.4,1.1.6,11-14.7,23.4-32.2,35.9-52.6C230.1,174,217.4,191.4,206.1,205.7Z"/><path class="h" d="M203,203.9a6.726,6.726,0,0,1,1.1.7,534.054,534.054,0,0,0,38.6-50.9A503.944,503.944,0,0,1,203,203.9Z"/><path class="h" d="M199.9,201.9a6.725,6.725,0,0,0,1.1.7,416.574,416.574,0,0,0,41.2-49A387.584,387.584,0,0,1,199.9,201.9Z"/><path class="h" d="M241.8,153.6A310.663,310.663,0,0,1,197,199.7a7.631,7.631,0,0,0,1.1.8A338.623,338.623,0,0,0,241.8,153.6Z"/><path class="h" d="M241.4,153.5c-17.1,20-33.9,34.6-47.3,43.8a10.625,10.625,0,0,0,1.1.9C208.4,188.5,224.7,173.6,241.4,153.5Z"/><path class="h" d="M241,153.5c-18.2,19.9-35.9,33.6-49.6,41.3l1,1C206,187.5,223.3,173.4,241,153.5Z"/><path class="h" d="M240.6,153.5c-19.2,19.6-37.8,32.5-51.7,38.6a9.961,9.961,0,0,0,1,1.1C203.7,186.4,221.9,173.2,240.6,153.5Z"/><path class="h" d="M186.6,189.1l.9,1.2c14-5.2,33-17.4,52.7-36.9C220.1,172.8,200.7,184.7,186.6,189.1Z"/><path class="h" d="M184.6,186.1a14.8,14.8,0,0,1,.8,1.3c14-3.5,33.9-14.8,54.4-34C218.9,172.4,198.6,183.3,184.6,186.1Z"/><path class="h" d="M182.9,183a8.265,8.265,0,0,0,.7,1.3c14-1.9,34.6-12.2,55.9-31C217.7,171.9,196.9,181.8,182.9,183Z"/><path class="h" d="M181.4,179.8c.2.4.4.9.6,1.3,13.9-.3,35-9.6,57-27.9C216.7,171.3,195.3,180.2,181.4,179.8Z"/><path class="h" d="M245.8,215.9h1.1q.45-31.05,1-62.1Z"/><path class="h" d="M249.2,215.9h1.1c-.7-20.7-1.3-41.4-2-62.1C248.5,174.5,248.9,195.2,249.2,215.9Z"/><path class="h" d="M252.6,215.8a4.1,4.1,0,0,0,1.1-.1c-1.7-20.6-3.3-41.3-5-62C249.9,174.5,251.3,195.2,252.6,215.8Z"/><path class="h" d="M256,215.6c.4,0,.7-.1,1.1-.1-2.7-20.4-5.3-41-8-61.7Q252.4,184.85,256,215.6Z"/><path class="h" d="M259.3,215.3c.4,0,.7-.1,1.1-.1q-5.4-30.3-11-61.4Q254.35,184.85,259.3,215.3Z"/><path class="h" d="M262.7,214.8c.4-.1.7-.1,1.1-.2-4.6-19.9-9.3-40.2-13.9-60.9C254.1,174.5,258.4,194.8,262.7,214.8Z"/><path class="h" d="M266.1,214.2c.4-.1.7-.1,1.1-.2q-8.4-29.25-16.9-60.3Q258.1,184.75,266.1,214.2Z"/><path class="h" d="M269.4,213.5c.4-.1.7-.2,1.1-.3-6.5-19-13.2-38.9-19.9-59.5Q260.2,184.75,269.4,213.5Z"/><path class="h" d="M272.7,212.7c.4-.1.7-.2,1.1-.3-7.4-18.5-15.1-38-22.8-58.7C258.4,174.4,265.7,194,272.7,212.7Z"/><path class="h" d="M276.1,211.7a4.875,4.875,0,0,0,1.1-.4c-8.3-17.8-17-37-25.7-57.7C259.8,174.4,268.1,193.7,276.1,211.7Z"/><path class="h" d="M279.3,210.6c.4-.1.7-.3,1.1-.4-9.1-17.1-18.8-35.9-28.6-56.5C261.2,174.3,270.6,193.3,279.3,210.6Z"/><path class="h" d="M282.6,209.4c.4-.2.7-.3,1.1-.5-9.9-16.3-20.6-34.7-31.5-55.3C262.7,174.3,273,192.8,282.6,209.4Z"/><path class="h" d="M285.8,208c.4-.2.7-.3,1.1-.5-10.6-15.3-22.4-33.3-34.3-53.8C264.1,174.2,275.5,192.3,285.8,208Z"/><path class="h" d="M289,206.4c.4-.2.7-.4,1.1-.6A617.009,617.009,0,0,1,253,153.6C265.6,174.1,277.9,191.7,289,206.4Z"/><path class="h" d="M292.1,204.7a6.726,6.726,0,0,0,1.1-.7,472.74,472.74,0,0,1-39.8-50.4A526.025,526.025,0,0,0,292.1,204.7Z"/><path class="h" d="M253.8,153.6a413.124,413.124,0,0,0,41.4,49.2c.4-.2.7-.5,1.1-.7A391.683,391.683,0,0,1,253.8,153.6Z"/><path class="h" d="M254.2,153.6a337.222,337.222,0,0,0,44,47.2,7.632,7.632,0,0,1,1.1-.8A319.849,319.849,0,0,1,254.2,153.6Z"/><path class="h" d="M254.6,153.5c16.8,20.2,33.2,35.1,46.5,44.9.4-.3.7-.6,1.1-.9C288.7,188.3,271.9,173.7,254.6,153.5Z"/><path class="h" d="M255,153.5c17.9,20,35.3,34.2,48.8,42.5a9.428,9.428,0,0,0,1-1C291.2,187.3,273.3,173.5,255,153.5Z"/><path class="h" d="M255.4,153.5c18.9,19.9,37.2,33.1,51,39.8.3-.4.7-.7,1-1.1C293.5,186.2,274.7,173.3,255.4,153.5Z"/><path class="h" d="M308.9,190.5l.9-1.2c-14-4.4-33.7-16.3-54-35.8C275.7,173.1,294.9,185.4,308.9,190.5Z"/><path class="h" d="M311.1,187.4a5.669,5.669,0,0,0,.8-1.3c-14.1-2.7-34.5-13.6-55.7-32.8C277,172.7,297,184,311.1,187.4Z"/><path class="h" d="M313,184.3c.2-.4.5-.9.7-1.3-14-1-35.1-10.9-57-29.7C278.2,172.3,299,182.6,313,184.3Z"/><path class="h" d="M257,153.3c22.2,18.5,43.6,27.7,57.5,27.9.2-.4.4-.9.6-1.4C301.2,180.4,279.6,171.6,257,153.3Z"/></g><path class="e" d="M219,155.3c-3.8,9.7.3,38,27.7,38,27.3,0,37.3-19.9,36.2-32.1l36.5-5.9s11.2,30.9-12.6,52.6c-23.8,21.6-106.1,20.2-123.5,3.8s-7.8-48.9-7.8-48.9Z"/><path class="k" d="M379.2,113.3v-6.8a1.084,1.084,0,0,1,.8-1.1l5-1.6V97a3.116,3.116,0,0,1,3.1-3.1h6a1.11,1.11,0,0,1,1.1,1.1v2.2a1.11,1.11,0,0,1-1.1,1.1h-7.6V105a1.1,1.1,0,0,1-.6,1l-4.3,2.6v4.8Z"/><rect class="f" width="6.6" height="19.7" transform="translate(379.2 113.3)"/><rect class="l" width="8.2" height="23" transform="translate(385.8 111.7)"/><g class="m" transform="translate(385.8 125.7)"><rect class="e" width="8.2" height="9"/></g><rect class="c" width="8.2" height="23" transform="translate(385.8 111.7)"/><rect class="f" width="6.6" height="19.7" transform="translate(117.294 133.033) rotate(180)"/><rect class="l" width="8.2" height="23" transform="translate(110.685 134.633) rotate(180)"/><g class="n" transform="translate(102.5 125.7)"><rect class="e" width="8.2" height="8.8"/></g><rect class="c" width="8.2" height="23" transform="translate(110.685 134.633) rotate(180)"/><path class="g" d="M116.3,124.3h0a7.938,7.938,0,0,0-2.4-9l-4.8-4a2.953,2.953,0,0,0-4.3.5L85.6,138.3A2.716,2.716,0,0,0,85,140v28.4a2.9,2.9,0,0,0,2.9,2.9h0a2.9,2.9,0,0,0,2.9-2.9V145.3a3.022,3.022,0,0,1,.5-1.6l14.4-20a1.61,1.61,0,0,1,2.3-.3l2.6,2.2a3.523,3.523,0,0,0,2.3.9h0A3.371,3.371,0,0,0,116.3,124.3Z"/><circle class="k" cx="1.4" cy="1.4" r="1.4" transform="translate(110.9 119)"/><rect class="f" width="249.7" height="38.7" transform="translate(123.4 103.8)"/><path class="o" d="M369.5,115.7H126.9a1.367,1.367,0,0,1-1.4-1.4v-6.2a1.367,1.367,0,0,1,1.4-1.4H369.5a1.367,1.367,0,0,1,1.4,1.4v6.2A1.367,1.367,0,0,1,369.5,115.7Z"/><path class="h" d="M350.8,150.3h-205a107.726,107.726,0,0,1-9-41.9H359.9C359.8,127.8,350.8,150.3,350.8,150.3Z"/><g class="p"><path class="c" d="M162.4,147.1s4.5-.2,7-1.7,2.3,1.4,3.8,1.6c1.4.2,4.8-1,6.6-1s.4,1.1,2.5,1c2-.1.9.1,2-.1s8.7-1.5,8.7-1.5,4.4-.8,5.3-.4,2.1,2.6,3.4,2,.6-1,2.6-1a13.4,13.4,0,0,1,3.6.5s.2-.5,1.1-.5h1.6s3.4.9,3.9.9,4.6-.9,4.7-.9,3.9-1,3.9-1a6.328,6.328,0,0,0,3,1.8c1.5.2,3-.2,4.1.3s4.7-.2,4.7-.2a18.572,18.572,0,0,1,2.6.2,6.569,6.569,0,0,0,3.4-.1,12.576,12.576,0,0,1,6.2-.1c3.2.6,6.2-.9,7.6-.9s6.9.6,8.8.6,6.9.7,10.4.3,5.8.5,8.1.5c2.4,0,4.9-.1,5.4-.1s3.1-1.7,6.9-1.3c3.7.4.4-.5,2.7,0s4.1,1,5.1,1.1a11.063,11.063,0,0,0,2.3-.1l4-.3h19.9"/><path class="c" d="M158.2,139.4s12.3,0,14.6-.2c2.2-.2,3.4-1.3,4.6-1.3s7.2,1.1,7.2,1.1a1.99,1.99,0,0,1,2-1.1c1.6,0,.8.2,2.3.7s.7,0,1.5.6a13.9,13.9,0,0,0,3.7,1.1s5.6.3,5.8-1.1c.2-1.3,3,1.1,3,1.1s7.6-1.1,10.5-1.1,10.2-.6,10.2-.6,6,.8,6.3.8,1.3,1.6,2.3.9c1.1-.7,2.1-1.5,3.4-1.3a14.86,14.86,0,0,1,3.4,1.3l2.8-1.5,3.2.2s3.3,2.2,5.6,1.3,5.2-2.4,5.2-2.4l2.9,2.4h1.9l5.6-1.1a3.3,3.3,0,0,0,3.6,1.1c2.4-.7,24.9,0,30.6,0s7-1.5,7-1.5l4.4,1.5h22"/></g><g class="q"><path class="e" d="M352.9,144.5c-1.2,3.6-2.1,5.8-2.1,5.8h-205s-1-2.1-2.4-5.8Z"/></g><g class="q"><path class="e" d="M357.1,129.4c-.7,3-1.5,5.9-2.2,8.5H141.2c-.7-2.5-1.5-5.4-2.2-8.5Z"/></g><path class="c" d="M350.8,150.3h-205a107.726,107.726,0,0,1-9-41.9H359.9C359.8,127.8,350.8,150.3,350.8,150.3Z"/><rect class="l" width="6.1" height="42.7" transform="translate(117.2 101.8)"/><g class="r" transform="translate(117.3 131.8)"><rect class="e" width="5.9" height="12.7"/></g><rect class="c" width="6.1" height="42.7" transform="translate(117.2 101.8)"/><rect class="l" width="6.1" height="42.7" transform="translate(373.2 101.8)"/><g class="s" transform="translate(373.1 131.8)"><rect class="e" width="6.2" height="12.7"/></g><rect class="c" width="6.1" height="42.7" transform="translate(373.2 101.8)"/><path class="k" d="M373.2,100v31.2H123.3V100h-2.4v33.3H375.6V100Z"/><path class="g" d="M388,152.5v69.8a4.375,4.375,0,0,1-4.4,4.4H112.9a4.375,4.375,0,0,1-4.4-4.4V152.5a4.375,4.375,0,0,1,4.4-4.4H237.6v4.4s-21.3,18.5-58,25.3c5.3,23.8,34,42,68.7,42s63.4-18.2,68.7-42c-36.8-6.8-58-25.3-58-25.3V148H383.7A4.443,4.443,0,0,1,388,152.5Z"/><path class="a" d="M388,152.5v69.8a4.375,4.375,0,0,1-4.4,4.4H112.9a4.439,4.439,0,0,1-4.4-4.4V152.5a4.439,4.439,0,0,1,4.4-4.4H237.6v4.4s-21.3,18.5-58,25.3c5.3,23.8,34,42,68.7,42s63.4-18.2,68.7-42c-36.8-6.8-58.1-25.3-58.1-25.3V148H383.6A4.461,4.461,0,0,1,388,152.5Z"/><g class="t"><path class="o" d="M382,153.6V218a3.329,3.329,0,0,1-3.3,3.3H115.6a3.329,3.329,0,0,1-3.3-3.3V153.5a3.329,3.329,0,0,1,3.3-3.3h122v2.2s-21.3,18.5-58,25.3c5.3,23.8,34,42,68.7,42s63.4-18.2,68.7-42c-36.8-6.8-58.1-25.3-58.1-25.3v-2.2H378.8A3.333,3.333,0,0,1,382,153.6Z"/></g><path class="c" d="M388,152.5v69.8a4.375,4.375,0,0,1-4.4,4.4H112.9a4.439,4.439,0,0,1-4.4-4.4V152.5a4.439,4.439,0,0,1,4.4-4.4H237.6v4.4s-21.3,18.5-58,25.3c5.3,23.8,34,42,68.7,42s63.4-18.2,68.7-42c-36.8-6.8-58.1-25.3-58.1-25.3V148H383.6A4.461,4.461,0,0,1,388,152.5Z"/></g><g transform="translate(-26.305 -27.65)"><path class="u" d="M298.6,247.4l13.3,37.1s5.8-40.8,9.2-40.8S331.9,266,331.9,266s4.6-11.6,8.9-12.1c4.3-.4,8.2,28.6,8.2,28.6l.7,64.4-5.4,97.3s-34.8-38.3-44.9-48.2-19.8-31.6-22.6-36-3.5-27.5-3.5-27.5a24.38,24.38,0,0,0,5.2-15.9s8.2-13.7,7.7-23.7C285.5,282.8,284.3,243.7,298.6,247.4Z"/><path class="h" d="M403.2,427l-52.6,27.7c0-.3-6.9-11.5-15.3-24.2-3.8-5.7-7.9-11.8-11.7-17.2-6.3-8.9-14.4-16.6-15.1-18.3-2-5-17.4-23.7-20.9-31s-4.2-29.9-5.8-35.3c-1.5-5.3,2.8-10.4,6.3-12.9s7.2-9,7.2-9-3.9-15.1-3.9-22.8-2.6-34.4.5-36.9,5.9-1.4,6.7.3c2.6,5.7,4.9,19.9,6.8,26.5,2,6.6,5.7,25.6,7.5,27s5.1-3.8,5.1-3.8.3-16,1-22.6l-1-21s-1.9-12.6,2.5-13.8c6-1.6,8.2,2.1,8.9,3.7s3.5,10.8,3.5,10.8a3.224,3.224,0,0,1,.2.6v.3c0,.2.1.4.1.6.1.4.2.9.4,1.5,1.3,5.2,3.9,15.6,3.8,18.2-.1,3.5-1.4,22.7.4,26.7l2.7-26.5s-4.4-20.4-3.1-23.4,7.1.3,7.8,1.5,6.4,8.2,7.4,10.9l1,2.7s1.4-6.3,4.7-4.7,3.7,9.7,3.9,13.2,2.6,26.2,3,26.2,4.2,11.8,3.7,19.6c-1.1,16.6,1.8,29,1.9,35.4s-4.7,21.2-4.7,21.2h0a37.449,37.449,0,0,1,4.2,10.3c.6,3.4,11.8,15.9,21,25.8h0C397.6,420.8,402.9,426.4,403.2,427Z"/><path class="v" d="M335.3,430.5h0c-3.8-5.7-7.9-11.8-11.7-17.2-6.3-8.9-14.4-16.6-15.1-18.3-2-5-17.4-23.7-20.9-31s-4.2-29.9-5.8-35.3c-1.5-5.3,2.8-10.4,6.3-12.9s7.2-9,7.2-9-3.9-15.1-3.9-22.8-2.6-34.4.5-36.9,5.9-1.4,6.7.3c2.6,5.7,4.9,19.9,6.8,26.5,2,6.6,5.7,25.6,7.5,27s5.1-3.8,5.1-3.8.3-16,1-22.6l-1-21s-1.9-12.6,2.5-13.8c6-1.6,8.2,2.1,8.9,3.7s3.5,10.8,3.5,10.8a3.224,3.224,0,0,1,.2.6v.3c0,.2.1.4.1.6.1.4.2.9.4,1.5a10.334,10.334,0,0,0-6.5-5.1c-8-1.6-6.3,7.3-5.5,12.7a34.213,34.213,0,0,1-.3,10.6l2-1.1c-1.4,2.6-3.5,23.9-3.5,28.7s-3.8,6.3-7.1,4.9c-3.4-1.4-4.6-23.2-7.1-27.1-2.6-3.9-9.7,3.6-10,10.4s6.1,27.2,4.5,32c-1.5,4.8-1.5,23-1.5,23l-1.8-4.7c.1.6,0,2.8-3.9,9.1a19.1,19.1,0,0,0-2.1,15.6c2.3,5.1,14.2,18.8,16.2,20.2,0,0,1.4-5.9,6-4.4a25.412,25.412,0,0,0-3.3,8c-.9,4.4,8.5,7.1,11.5,11.3C323,403.9,324.2,411.6,335.3,430.5Z"/><path class="v" d="M391.3,414c-9.4-9.4-25.8-18.4-24.8-20.8,1.3-3.2-.4-9.9-3.2-15.4-2.9-5.5,1-14.3,1-14.3l1.8,5.1a43.8,43.8,0,0,0,.5-18.1c-1.8-10.2-3.2-6.6-3.2-6.6s.4-9.2,2-14.2,3-17.2.8-24.4-7-5.8-8.3-3.4c-1.3,2.5.1,12.2,1.1,15.3,1.1,3.2-3.4,8.5-3.5,4.5s-1.8-15-1.8-15l3.4-22.2-3.4-17.6s1.4-6.3,4.7-4.7,3.7,9.7,3.9,13.2,2.6,26.2,3,26.2,4.2,11.8,3.7,19.6c-1.1,16.6,1.8,29,1.9,35.4s-4.7,21.2-4.7,21.2h0a37.449,37.449,0,0,1,4.2,10.3c.5,3.6,11.7,16,20.9,25.9Z"/><path class="v" d="M352.5,264.4c.2.5.4.9.5,1.2-3.2-7.4-8.6-5.1-9.6-3-1,2.2,2.3,15.1,3,17.1s-2.9,18.2-3.4,23.5-1.9,6.4-1.9,6.4c-3.6.3-4-9.6-4-11a10.275,10.275,0,0,0,.7,3.3l2.7-26.5s-4.4-20.4-3.1-23.4,7.1.3,7.8,1.5C345.8,254.7,351.5,261.7,352.5,264.4Z"/><path class="c" d="M403.2,427c-.7-1.5-31.9-33-33-38.8-.9-4.8-4.2-10.3-4.2-10.3s4.8-14.8,4.7-21.2-3-18.8-1.9-35.4c.5-7.8-3.3-19.5-3.7-19.6-.4,0-2.8-22.7-3-26.2s-.6-11.6-3.9-13.2-4.7,4.7-4.7,4.7l-1-2.7c-1-2.7-6.7-9.7-7.4-10.9s-6.6-4.4-7.8-1.5c-1.3,3,3.1,23.4,3.1,23.4l-2.7,26.6c-1.7-4-.5-23.2-.4-26.7.2-3.5-4.6-21.2-4.6-21.2s-2.8-9.2-3.5-10.8-2.9-5.4-8.9-3.7c-4.4,1.2-2.5,13.8-2.5,13.8l1,21c-.7,6.7-1,22.6-1,22.6s-3.2,5.1-5.1,3.8c-1.8-1.4-5.5-20.4-7.5-27s-4.3-20.8-6.8-26.5c-.8-1.7-3.6-2.8-6.7-.3s-.5,29.3-.5,36.9c0,7.7,3.9,22.7,3.9,22.7s-3.7,6.5-7.2,9-7.9,7.6-6.3,12.9c1.5,5.3,2.3,28,5.8,35.3,3.4,7.3,18.8,26,20.9,31,.7,1.7,8.7,9.4,15.1,18.3,12.5,17.5,27,41,27,41.4"/><path class="c" d="M295.3,306.8s2.5,12.3,2.4,14.3c0,0-2.2,9.5-2.2,15.6a71.308,71.308,0,0,0-4.1,7.2c-.8,2.2-2.3,7.7-1.7,10.7"/><path class="c" d="M290.8,324.9s6.1.1,5.7,2.6"/><path class="c" d="M295.6,336.8s-3.9-1.7-5.3.6"/><path class="c" d="M318,297.1s-.3,9.4-2.8,8.7"/><path class="c" d="M337.7,302s-.7,5.2,1.2,6.7"/><path class="c" d="M353.5,267.1s2.7,13,3.3,16.1c.6,3-3.1,18.8-3,22.9s1.8,9.9,1.6,12.7"/><path class="c" d="M364.3,365.8s-.9,8.5,1.7,12.1"/><path class="c" d="M311.9,382.6s-5.8,5.3-3.7,11.8"/><path class="c" d="M350.1,316.5c.1,3.7-2.1,8.1-2.3,13.3"/><path class="c" d="M331.6,313.2c1.2,3.1-1.5,9.7-1.9,12.2a15.737,15.737,0,0,0,.6,5.8"/><path class="c" d="M366.4,323.7c-.5,3.2-2.8,5.6-3.2,15.6"/><path class="c" d="M309.7,312.2c1.7,1.8.5,10.6,1,12"/><path class="c" d="M341,261.9s5.7-4.2,10.6.8"/><path class="c" d="M321.3,252.2s1-1.7,5.8-1.3,5.7,3.1,5.7,3.1"/><path class="w" d="M307.2,280.8s-1.6-2.4-5.9-1.6-6.2,6.8-6.2,6.8"/><path class="c" d="M365.2,301.8s-3.6-5.2-7.8-3"/></g><g transform="translate(-26.305 -27.65)"><path class="u" d="M213.5,263.9c6,4.7.9,33.2.9,33.2l.5,9.3,10.3-4.4,4.6,19.9s-.1,7.3,3.7,10c0,0,.9,16.3,0,28.2s-20,25.9-26.6,38.4c-6.5,12.5-49.4,49.3-49.4,49.3l-36.3-17.3,26.2-105.9,23.5-30.2,13.9-34.8s2.4,22.7,1,38Z"/><path class="h" d="M223.6,327.4c-.9,4.4,1.3,28.4.9,31.6s-19.5,25-20.4,26.6c-1,1.7-13.7,9-16.7,12.5-13.9,16.2-21.5,31.1-27.6,46h0c-1.2,2.9-2.3,5.8-3.4,8.7l-55.1-32c4.6-5.7,9-10.8,13-15.5,8.1-9.4,14.4-16.9,17.5-24a35.324,35.324,0,0,1,3.3-5.2c1.2-1.8,2.3-3.2,2.3-3.2s-4-11.3-3.1-14.8-1.2-32.6-1.2-32.6-2.7-19.8-5.4-24.8a8.6,8.6,0,0,1-.9-4.2c.1-4.6,2.8-10.3,4.1-17,1.7-9,.9-13.5,6.4-10.3,5.5,3.1,2.9,22,2.9,22l8.3,18.3c2.2-4.4,0-17.3-.1-20.4,0-.5,0-1.3-.1-2.4-.2-5.3-.5-16.2-.1-20.5,0-.2.1-.5.1-.7.7-4.5,3.1-18.6,4.6-20.2,2.3-2.3,5.8-4.3,9.2,1,1.9,3,1.1,26.8,1.1,26.8s7.8-9.5,10.2-11.8,9.6-6.5,11.5-1.6-5.2,20-5.2,20c1.5,3.5,1.7,13.2,1.7,13.2s3.4,12.1,5.4,12h.1c.6-.1,1.3-2.3,1.9-5.4,1.7-7.6,3.6-20.5,5-21.6a11.482,11.482,0,0,1,1-.8c0-.1.1-.1.2-.1a1.38,1.38,0,0,1,.4-.3c3.5-3.2,11-10.2,11-10.2s.5-3.3,7.1-2.3c6.5,1-2.9,20.3-2.9,20.3-1.3,6.1-3.3,21.9-3.3,21.9-.6,6.6-.3,24.2-.3,24.2s3.1-10.3,2.9-14,6.1-12.9,8-15.3,10.2-1.5,7.9,3C223.5,308.6,224.6,323,223.6,327.4Z"/><path class="v" d="M131.9,381.4a35.324,35.324,0,0,1,3.3-5.2s-3.3,9-3.6,13.8c-.2,3.2-8.5,8.6-17.2,15.5C122.4,396.1,128.7,388.5,131.9,381.4Z"/><path class="v" d="M135.1,376.2c1.2-1.8,2.3-3.2,2.3-3.2s-4-11.3-3.1-14.8-1.2-32.6-1.2-32.6-2.7-19.8-5.4-24.8l6.2,10.9s-.6,8.6,1.2,13.3,4,19.1,4,19.1-2.6,12.1-1.7,16.4c.9,4.4,4.9,2.8,4.9,2.8S144.4,371.2,135.1,376.2Z"/><path class="v" d="M149.6,294.4c4.3,25.1-3.1,18.2-5.8,12.8s-8.9-15.7-13.7-13.5a7.006,7.006,0,0,0-3.2,2.9c.1-4.6,2.8-10.3,4.1-17,1.7-9,.9-13.5,6.4-10.3,5.5,3.1,2.9,22,2.9,22l8.3,18.3c2.2-4.4,0-17.3-.1-20.4,0-.5,0-1.3-.1-2.4C148.8,289,149.2,291.6,149.6,294.4Z"/><path class="v" d="M160.1,269.6s-4.6-6.1-8.6-5.8a3.455,3.455,0,0,0-3.1,2.3c0-.2.1-.5.1-.7.7-4.5,3.1-18.6,4.6-20.2,2.3-2.3,5.8-4.3,9.2,1,1.9,3,1.1,26.8,1.1,26.8s7.8-9.5,10.2-11.8,9.6-6.5,11.5-1.6-5.2,20-5.2,20c1.5,3.5,1.7,13.2,1.7,13.2s3.4,12.1,5.4,12c-4.6,8.6-7.6-10.4-7.6-10.4.7-3.9-1.7-12.4-1.5-14.7.3-2.2-4.2-10.2-11.7-8s-2.1,31.7-2.1,31.7a16.21,16.21,0,0,0-2.5,7.8c-2.3-2.8,0-11,0-11C159.6,292.5,160.1,269.6,160.1,269.6Z"/><path class="v" d="M195,276.9c-3.2,3.4-2.8,11.8-6,22.5,1.7-7.6,3.6-20.5,5-21.6A9.02,9.02,0,0,1,195,276.9Z"/><path class="v" d="M223.6,327.4c-.9,4.4,1.3,28.4.9,31.6s-19.5,25-20.4,26.6c-1,1.7-13.7,9-16.7,12.5-13.9,16.2-21.5,31.1-27.6,46a209.336,209.336,0,0,1,8.3-22.8c6.6-14.8,9.3-17.4,13.2-21.6s3.5-13.2,3.5-13.2a36.343,36.343,0,0,1,8.9-1.1c5,0,19.8-21.1,24.9-24.8s6-3.7,0-11.9-4.3,1.3-6.1,1c-1.8-.4-2.8,3.6-2.8,3.6-.6-8.3-6-18-7.1-20.4-1.2-2.4,2.7-16.6,1.9-20.6s3.4-28,3.4-28-.5-9.2-8.9-9.3a5.721,5.721,0,0,0-3.6,1.1c3.5-3.2,11-10.2,11-10.2s.5-3.3,7.1-2.3c6.5,1-2.9,20.3-2.9,20.3-1.3,6.1-3.3,21.9-3.3,21.9-.6,6.6-.3,24.2-.3,24.2s3.1-10.3,2.9-14,6.1-12.9,8-15.3,10.2-1.5,7.9,3C223.5,308.6,224.6,323,223.6,327.4Z"/><path class="c" d="M156.5,452.9c6.8-17.9,14.4-35.4,30.9-54.8,3-3.5,15.7-10.8,16.7-12.5s20.1-23.4,20.4-26.7c.4-3.2-1.8-27.2-.9-31.6s-.1-18.8,2.2-23.3-6-5.3-7.9-3c-1.8,2.4-8.2,11.6-8,15.3s-2.9,14-2.9,14-.4-17.6.3-24.2c0,0,2-15.8,3.3-21.9,0,0,9.4-19.3,2.9-20.3s-7.1,2.3-7.1,2.3S196,276,193.9,277.6c-2,1.6-4.9,26.6-6.9,27.1-2.1.5-5.5-12-5.5-12s-.2-9.7-1.7-13.2c0,0,7.1-15.1,5.2-20s-9.1-.7-11.5,1.6-10.2,11.8-10.2,11.8.8-23.8-1.1-26.8c-3.4-5.3-7-3.4-9.2-1-1.5,1.6-3.9,15.8-4.6,20.2-.7,4.5,0,20.5.1,23.6s2.3,15.9.1,20.4L140.3,291s2.6-18.9-2.9-22-4.6,1.4-6.4,10.3c-1.7,9-5.9,16.3-3.2,21.3s5.4,24.8,5.4,24.8,2.1,29.1,1.1,32.6c-.9,3.5,3.1,14.8,3.1,14.8s-4.6,6.1-5.6,8.4c-4.7,10.6-16.4,22.2-30.5,39.5"/><path class="c" d="M163.3,273.1a9.361,9.361,0,0,0-1.7,5.8c0,3.8,2.5,24.6,2.5,24.6a8.379,8.379,0,0,0-1.9,4"/><path class="c" d="M207.1,330.3a28.248,28.248,0,0,0,2.7,10.1c2.3,4.6,1.6,7.2.8,9.9a33.111,33.111,0,0,0-.8,7.3"/><path class="c" d="M149.5,305.3s1.7,5.5-1.5,8.1"/><path class="c" d="M187.1,304.8s.3,2.2-2.7,2.4"/><path class="c" d="M207.7,279.8s-7.7-8.4-13.7-2.1"/><path class="c" d="M176.5,275s-3.5-4.5-6.6-4.2-7.2,2.1-7.7,4.6"/><path class="c" d="M211.2,347.7a17.6,17.6,0,0,1,2.7,5.9"/><path class="c" d="M191.2,313.5c-2.4,4.5-1.2,12-2.1,14.1"/><path class="c" d="M165.9,306.2c.6,2.6-1.2,6.7-1.5,9.8s2.2,7.8,1.8,12.1"/><path class="c" d="M149.6,316.6s-2.1,4.8-2,8,1.2,10.1,1.2,10.1"/><path class="c" d="M134.3,316.4s-.8,5,1,8.5,3.5,11,3.5,11"/><path class="c" d="M137.5,373a4.8,4.8,0,0,0,3.5-4.1"/><path class="c" d="M187.8,388.2s1.9,7.1-1.8,11.6"/><path class="c" d="M127.1,295.7s5.4-5.3,9.5-.8"/><path class="c" d="M148.4,265.5s4-4.2,8.7.3"/></g></g></svg>