<svg width="20" height="20" viewBox="0 0 20 20" fill="none" xmlns="http://www.w3.org/2000/svg">
<path d="M8.43542 1.76016C9.26813 0.823356 10.7319 0.823357 11.5646 1.76016C12.0678 2.32629 12.8376 2.57641 13.5775 2.41419C14.8018 2.14576 15.986 3.00612 16.109 4.25347C16.1834 5.00726 16.6591 5.66209 17.3531 5.96574C18.5013 6.46821 18.9537 7.86031 18.32 8.94176C17.9371 9.59529 17.9371 10.4047 18.32 11.0582C18.9537 12.1397 18.5013 13.5318 17.3531 14.0343C16.6591 14.3379 16.1834 14.9927 16.109 15.7465C15.986 16.9939 14.8018 17.8542 13.5775 17.5858C12.8376 17.4236 12.0678 17.6737 11.5646 18.2398C10.7319 19.1766 9.26813 19.1766 8.43542 18.2398C7.93219 17.6737 7.1624 17.4236 6.42252 17.5858C5.1982 17.8542 4.01401 16.9939 3.89097 15.7465C3.81661 14.9927 3.34085 14.3379 2.64693 14.0343C1.49865 13.5318 1.04633 12.1397 1.67996 11.0582C2.06288 10.4047 2.06288 9.59529 1.67996 8.94176C1.04633 7.86031 1.49865 6.46821 2.64693 5.96574C3.34085 5.66209 3.81661 5.00726 3.89097 4.25347C4.01401 3.00612 5.1982 2.14576 6.42252 2.41419C7.1624 2.57641 7.93219 2.32629 8.43542 1.76016Z" fill="#FFC107"/>
<path d="M8.18949 13.3897C8.07922 13.3897 7.96884 13.3478 7.88498 13.2633L5.29911 10.6775C5.13076 10.5091 5.13076 10.2362 5.29911 10.0677C5.46747 9.89937 5.7404 9.89937 5.90875 10.0677L8.19012 12.3491L14.206 6.33317C14.3744 6.16482 14.6473 6.16482 14.8157 6.33317C14.984 6.50152 14.984 6.77457 14.8157 6.94292L8.49462 13.2639C8.41024 13.3478 8.29986 13.3897 8.18949 13.3897Z" fill="white"/>
</svg>
