<svg width="30" height="30" viewBox="0 0 30 30" fill="none" xmlns="http://www.w3.org/2000/svg">
<path d="M5.98249 20.8359H24.0175L25.2721 15.1907C25.3299 14.9304 25.2665 14.658 25.0997 14.45C24.9329 14.2421 24.6808 14.1211 24.4142 14.1211H5.58593C5.31933 14.1211 5.06714 14.2421 4.90039 14.45C4.73351 14.658 4.67011 14.9304 4.728 15.1907L5.98249 20.8359ZM15 17.4785C15.4852 17.4785 15.8789 17.8723 15.8789 18.3574C15.8789 18.8425 15.4852 19.2363 15 19.2363C14.5149 19.2363 14.1211 18.8425 14.1211 18.3574C14.1211 17.8723 14.5149 17.4785 15 17.4785Z" fill="#AAAAAA"/>
<path d="M15 10.293C17.3224 10.293 19.2051 8.41032 19.2051 6.08791C19.2051 3.7655 17.3224 1.88281 15 1.88281C12.6776 1.88281 10.7949 3.7655 10.7949 6.08791C10.7949 8.41032 12.6776 10.293 15 10.293Z" fill="#AAAAAA"/>
<path d="M16.8828 10.293H15H13.1171C11.3682 10.293 9.80477 11.1011 8.77979 12.3633H21.2202C20.1952 11.1011 18.6317 10.293 16.8828 10.293Z" fill="#AAAAAA"/>
<path d="M29.1211 22.5938H0.878906C0.393516 22.5938 0 22.9873 0 23.4727V27.2383C0 27.7237 0.393516 28.1172 0.878906 28.1172H29.1211C29.6065 28.1172 30 27.7237 30 27.2383V23.4727C30 22.9873 29.6065 22.5938 29.1211 22.5938Z" fill="#AAAAAA"/>
</svg>
