<svg width="30" height="30" viewBox="0 0 30 30" fill="none" xmlns="http://www.w3.org/2000/svg">
<path d="M1.875 26.25H28.125V27.1875H1.875V26.25Z" fill="#AAAAAA"/>
<path d="M22.9954 15.9375H21.3281L20.3438 17.25L21.4599 18.0871L22.9954 15.9375Z" fill="#AAAAAA"/>
<path d="M24.1475 15.9375L21.9439 19.0225C21.9076 19.0733 21.8615 19.1164 21.8083 19.1491C21.7551 19.1819 21.6959 19.2037 21.6342 19.2132C21.5724 19.2228 21.5094 19.2199 21.4488 19.2048C21.3882 19.1896 21.3312 19.1625 21.2813 19.125L19.6875 17.9297V23.4375H25.7812C25.9056 23.4375 26.0248 23.4869 26.1127 23.5748C26.2006 23.6627 26.25 23.7819 26.25 23.9062C26.2505 24.4137 26.0855 24.9074 25.78 25.3125H27.1875V18.2812C27.1868 17.6599 26.9396 17.0641 26.5003 16.6247C26.0609 16.1854 25.4651 15.9382 24.8438 15.9375H24.1475Z" fill="#AAAAAA"/>
<path d="M20.1562 14.5315H19.6875V16.5628L20.625 15.3128V14.5049C20.4694 14.5224 20.3129 14.5313 20.1562 14.5315Z" fill="#AAAAAA"/>
<path d="M23.4375 10.3125V7.96875H15.9375V10.3125C15.935 10.9834 16.1407 11.6385 16.5263 12.1875H17.3438C17.7996 12.188 18.2455 12.3213 18.6268 12.571C19.0082 12.8207 19.3085 13.1761 19.4912 13.5938H20.1563C21.0262 13.5928 21.8602 13.2468 22.4754 12.6316C23.0905 12.0165 23.4365 11.1824 23.4375 10.3125ZM17.3438 10.3125C17.2511 10.3125 17.1604 10.285 17.0833 10.2335C17.0063 10.182 16.9462 10.1088 16.9107 10.0231C16.8752 9.93748 16.8659 9.84323 16.884 9.7523C16.9021 9.66137 16.9468 9.57785 17.0123 9.51229C17.0779 9.44674 17.1614 9.40209 17.2523 9.38401C17.3433 9.36592 17.4375 9.3752 17.5232 9.41068C17.6088 9.44616 17.682 9.50624 17.7335 9.58333C17.785 9.66041 17.8125 9.75104 17.8125 9.84375C17.8125 9.96807 17.7631 10.0873 17.6752 10.1752C17.5873 10.2631 17.4681 10.3125 17.3438 10.3125ZM22.0313 10.3125C21.9386 10.3125 21.8479 10.285 21.7708 10.2335C21.6938 10.182 21.6337 10.1088 21.5982 10.0231C21.5627 9.93748 21.5534 9.84323 21.5715 9.7523C21.5896 9.66137 21.6343 9.57785 21.6998 9.51229C21.7654 9.44674 21.8489 9.40209 21.9398 9.38401C22.0308 9.36592 22.125 9.3752 22.2107 9.41068C22.2963 9.44616 22.3695 9.50624 22.421 9.58333C22.4725 9.66041 22.5 9.75104 22.5 9.84375C22.5 9.96807 22.4506 10.0873 22.3627 10.1752C22.2748 10.2631 22.1556 10.3125 22.0313 10.3125Z" fill="#AAAAAA"/>
<path d="M10.7813 18.7496C11.1129 18.7497 11.4338 18.8671 11.6873 19.0809C11.9408 19.2947 12.1106 19.5912 12.1667 19.918C12.2228 20.2449 12.1615 20.581 11.9938 20.8671C11.8261 21.1532 11.5626 21.3708 11.25 21.4815V21.9912C11.9053 21.8806 12.5003 21.5414 12.9293 21.0338C13.3583 20.5262 13.5937 19.8831 13.5937 19.2185C13.5937 18.5539 13.3583 17.9108 12.9293 17.4032C12.5003 16.8957 11.9053 16.5565 11.25 16.4458V16.9556C11.5239 17.0528 11.761 17.2323 11.9289 17.4696C12.0967 17.7068 12.1871 17.9902 12.1875 18.2808C12.1875 18.4052 12.1381 18.5244 12.0502 18.6123C11.9623 18.7002 11.8431 18.7496 11.7188 18.7496C11.5944 18.7496 11.4752 18.7002 11.3873 18.6123C11.2994 18.5244 11.25 18.4052 11.25 18.2808C11.25 18.1881 11.2225 18.0975 11.171 18.0204C11.1195 17.9433 11.0463 17.8833 10.9606 17.8478C10.875 17.8123 10.7807 17.803 10.6898 17.8211C10.5989 17.8392 10.5153 17.8838 10.4498 17.9494C10.3842 18.0149 10.3396 18.0985 10.3215 18.1894C10.3034 18.2803 10.3127 18.3746 10.3482 18.4602C10.3837 18.5459 10.4437 18.6191 10.5208 18.6706C10.5979 18.7221 10.6885 18.7496 10.7813 18.7496Z" fill="#AAAAAA"/>
<path d="M10.3125 21.9919V21.4821C10.0386 21.3849 9.80142 21.2054 9.63357 20.9681C9.46572 20.7308 9.3754 20.4473 9.37499 20.1567C9.37499 20.0324 9.42438 19.9131 9.51228 19.8252C9.60019 19.7373 9.71942 19.6879 9.84374 19.6879C9.96806 19.6879 10.0873 19.7373 10.1752 19.8252C10.2631 19.9131 10.3125 20.0324 10.3125 20.1567C10.3125 20.2494 10.34 20.34 10.3915 20.4171C10.443 20.4942 10.5162 20.5543 10.6019 20.5897C10.6875 20.6252 10.7818 20.6345 10.8727 20.6164C10.9636 20.5983 11.0471 20.5537 11.1127 20.4881C11.1783 20.4226 11.2229 20.3391 11.241 20.2481C11.2591 20.1572 11.2498 20.063 11.2143 19.9773C11.1788 19.8916 11.1188 19.8184 11.0417 19.7669C10.9646 19.7154 10.874 19.6879 10.7812 19.6879C10.4496 19.6878 10.1287 19.5705 9.87519 19.3567C9.62169 19.1429 9.45189 18.8463 9.39581 18.5195C9.33973 18.1926 9.40096 17.8565 9.5687 17.5704C9.73643 17.2843 9.99988 17.0667 10.3125 16.9561V16.4463C9.65717 16.557 9.06222 16.8962 8.63318 17.4037C8.20415 17.9113 7.96875 18.5544 7.96875 19.219C7.96875 19.8836 8.20415 20.5267 8.63318 21.0343C9.06222 21.5419 9.65717 21.8811 10.3125 21.9917V21.9919Z" fill="#AAAAAA"/>
<path d="M15.4402 12.1875C15.1514 11.6046 15.0007 10.963 15 10.3125V7.5C15 7.37568 15.0494 7.25645 15.1373 7.16854C15.2252 7.08064 15.3444 7.03125 15.4688 7.03125H16.4062V5.625C16.4062 5.50068 16.4556 5.38145 16.5435 5.29354C16.6315 5.20564 16.7507 5.15625 16.875 5.15625C16.9993 5.15625 17.1185 5.20564 17.2065 5.29354C17.2944 5.38145 17.3438 5.50068 17.3438 5.625V7.03125H18.2812V5.625C18.2812 5.50068 18.3306 5.38145 18.4185 5.29354C18.5065 5.20564 18.6257 5.15625 18.75 5.15625C18.8743 5.15625 18.9935 5.20564 19.0815 5.29354C19.1694 5.38145 19.2188 5.50068 19.2188 5.625V7.03125H20.1562V5.625C20.1562 5.50068 20.2056 5.38145 20.2935 5.29354C20.3815 5.20564 20.5007 5.15625 20.625 5.15625C20.7493 5.15625 20.8685 5.20564 20.9565 5.29354C21.0444 5.38145 21.0938 5.50068 21.0938 5.625V7.03125H22.0312V5.625C22.0312 5.50068 22.0806 5.38145 22.1685 5.29354C22.2565 5.20564 22.3757 5.15625 22.5 5.15625C22.6243 5.15625 22.7435 5.20564 22.8315 5.29354C22.9194 5.38145 22.9688 5.50068 22.9688 5.625V7.03125H23.9062C24.0306 7.03125 24.1498 7.08064 24.2377 7.16854C24.3256 7.25645 24.375 7.37568 24.375 7.5V10.3125C24.3739 11.1846 24.103 12.035 23.5994 12.747C23.0959 13.459 22.3844 13.9978 21.5625 14.2894V15H22.9688C24.7781 15 26.25 13.4701 26.25 11.5894V8.19504C26.25 4.71018 23.5164 1.875 20.1562 1.875H19.2188C15.8586 1.875 13.125 4.71018 13.125 8.19504V11.5894C13.125 11.7898 13.1418 11.9899 13.1753 12.1875H15.4402Z" fill="#AAAAAA"/>
<path d="M25.2322 24.375H19.6406C19.5711 24.7151 19.4267 25.0353 19.2178 25.3125H23.9063C24.197 25.3122 24.4805 25.2219 24.7179 25.054C24.9553 24.8862 25.1349 24.649 25.2322 24.375Z" fill="#AAAAAA"/>
<path d="M4.21875 25.3125H17.3438C17.7166 25.3121 18.074 25.1638 18.3377 24.9002C18.6013 24.6365 18.7496 24.2791 18.75 23.9062V14.5312C18.7496 14.1584 18.6013 13.801 18.3377 13.5373C18.074 13.2737 17.7166 13.1254 17.3438 13.125H4.21875C3.84592 13.1254 3.48848 13.2737 3.22484 13.5373C2.96121 13.801 2.81292 14.1584 2.8125 14.5312V23.9062C2.81292 24.2791 2.96121 24.6365 3.22484 24.9002C3.48848 25.1638 3.84592 25.3121 4.21875 25.3125ZM10.7812 15.4688C11.5229 15.4688 12.248 15.6887 12.8646 16.1007C13.4813 16.5128 13.962 17.0985 14.2458 17.7837C14.5296 18.4689 14.6039 19.2229 14.4592 19.9503C14.3145 20.6778 13.9573 21.346 13.4329 21.8704C12.9085 22.3948 12.2403 22.752 11.5128 22.8967C10.7854 23.0414 10.0314 22.9671 9.34619 22.6833C8.66096 22.3995 8.07529 21.9188 7.66324 21.3021C7.25118 20.6855 7.03125 19.9604 7.03125 19.2188C7.03237 18.2245 7.42781 17.2714 8.13083 16.5683C8.83385 15.8653 9.78703 15.4699 10.7812 15.4688Z" fill="#AAAAAA"/>
</svg>
