<svg xmlns="http://www.w3.org/2000/svg" width="98" height="98" viewBox="0 0 98 98"><defs><style>.a{fill:#03e68b;}</style></defs><path class="a" d="M65.632,163.263h45.685a1.632,1.632,0,1,0,0-3.263H65.632a1.632,1.632,0,0,0,0,3.263Z" transform="translate(-54.21 -130.599)"/><path class="a" d="M65.632,211.263H104.79a1.632,1.632,0,1,0,0-3.263H65.632a1.632,1.632,0,1,0,0,3.263Z" transform="translate(-54.21 -168.799)"/><path class="a" d="M96.632,257.632A1.636,1.636,0,0,0,95,256H65.632a1.632,1.632,0,0,0,0,3.263H95A1.636,1.636,0,0,0,96.632,257.632Z" transform="translate(-54.21 -206.998)"/><path class="a" d="M91.737,304H65.632a1.632,1.632,0,0,0,0,3.263H91.737a1.632,1.632,0,1,0,0-3.263Z" transform="translate(-54.21 -245.198)"/><path class="a" d="M161.632,115.263h26.106a1.632,1.632,0,1,0,0-3.263H161.632a1.632,1.632,0,1,0,0,3.263Z" transform="translate(-130.589 -92.399)"/><path class="a" d="M88.474,352H65.632a1.632,1.632,0,0,0,0,3.263H88.474a1.632,1.632,0,0,0,0-3.263Z" transform="translate(-54.21 -283.397)"/><path class="a" d="M113.525,50.484h0l-3.45-3.471,1.164-1.164A8.171,8.171,0,0,0,99.684,34.293L97.377,36.6,94.4,39.581V27.433A1.638,1.638,0,0,0,92.763,25.8H84.6V17.633A1.638,1.638,0,0,0,82.963,16H37.232a1.653,1.653,0,0,0-1.164.47l-19.6,19.6A1.619,1.619,0,0,0,16,37.233v65.333a1.638,1.638,0,0,0,1.633,1.633H25.8v8.167A1.638,1.638,0,0,0,27.433,114h65.33a1.638,1.638,0,0,0,1.633-1.633V62.673L107.748,49.32l2.307,2.307L97.336,64.265a1.631,1.631,0,0,0,2.287,2.327l.02-.02,13.883-13.8A1.614,1.614,0,0,0,113.525,50.484ZM84.6,29.067h6.533V42.848L84.6,49.381Zm-49-7.493V35.6H21.573Zm-16.332,79.36V38.867H37.232a1.638,1.638,0,0,0,1.633-1.633V19.267H81.33V52.648l-18.6,18.6h0a1.565,1.565,0,0,0-.388.633L57.689,85.7a1.62,1.62,0,0,0,1.021,2.062,1.464,1.464,0,0,0,1.021,0l13.862-4.553a1.472,1.472,0,0,0,.674-.429h0l7.043-7.044v25.194ZM66.182,72.411,80.044,58.548l6.921,6.921L73.082,79.353Zm3.9,8.534-8.248,2.715,2.756-8.228Zm21.048,29.788H29.066V104.2h53.9a1.638,1.638,0,0,0,1.633-1.633V72.472l6.533-6.533ZM89.292,63.162l-6.921-6.921L98.54,40.071l6.921,6.921Zm19.64-19.641-1.164,1.164-6.921-6.921,1.164-1.164a4.894,4.894,0,0,1,6.921,6.921Z" transform="translate(-16 -16)"/></svg>