<svg width="40" height="38" viewBox="0 0 40 38" fill="none" xmlns="http://www.w3.org/2000/svg">
<path d="M39.2997 0.720604C38.9076 0.425498 38.3997 0.331504 37.9282 0.467002C36.1182 0.986717 33.8114 0.839927 30.8909 0.65438C29.0623 0.538108 26.9898 0.406272 24.6094 0.406272C22.7442 0.406272 21.0682 1.22872 19.9219 2.52877C18.7757 1.22872 17.1 0.406272 15.2344 0.406272C12.8544 0.406272 10.7816 0.538108 8.95298 0.65438C6.03244 0.840233 3.72561 0.987022 1.91561 0.467002C1.44412 0.331504 0.936302 0.425498 0.544456 0.720604C0.152304 1.01601 -0.078104 1.47805 -0.078104 1.96877V27.8904C-0.0823765 29.5628 0.565818 31.136 1.74685 32.3201C2.92788 33.5042 4.49954 34.1563 6.17191 34.1563H17.5C18.3631 34.1563 19.0626 33.4568 19.0626 32.5938C19.0626 31.7308 18.3631 31.0313 17.5 31.0313H6.17191C5.33572 31.0313 4.54989 30.7054 3.95938 30.1133C3.36886 29.5213 3.04476 28.7346 3.0469 27.8944V27.0655C3.96701 27.599 5.0339 27.9063 6.17191 27.9063H17.8125C18.1598 27.9063 18.3976 28.1221 18.5044 28.3238C18.7848 28.8533 19.3262 29.1554 19.8865 29.1554C20.1331 29.1554 20.3834 29.0971 20.6162 28.9735C21.0868 28.7245 21.377 28.2692 21.4359 27.7781C21.4664 27.6564 21.4844 27.5297 21.4844 27.3985V6.65628C21.4844 4.93326 22.8861 3.53128 24.6094 3.53128C26.8903 3.53128 28.9103 3.65975 30.6925 3.77298C33.0231 3.92129 34.9998 4.04702 36.797 3.85202V15.0938C36.797 15.9568 37.4964 16.6563 38.3595 16.6563C39.2225 16.6563 39.922 15.9568 39.922 15.0938V1.96877C39.922 1.47805 39.6916 1.01601 39.2997 0.720604ZM6.17191 24.7813C4.44888 24.7813 3.0469 23.3793 3.0469 21.6563V3.85202C4.84408 4.04702 6.82041 3.92129 9.15104 3.77298C10.9336 3.65975 12.9535 3.53128 15.2344 3.53128C16.9574 3.53128 18.3594 4.93326 18.3594 6.65628V24.8198C18.18 24.7944 17.9975 24.7813 17.8125 24.7813H6.17191ZM15.7032 9.23441C15.7032 10.0974 15.0037 10.7969 14.1407 10.7969H7.34378C6.48074 10.7969 5.78128 10.0974 5.78128 9.23441C5.78128 8.37137 6.48074 7.67191 7.34378 7.67191H14.1407C15.0037 7.67191 15.7032 8.37137 15.7032 9.23441ZM13.3594 15.4844C13.3594 16.3475 12.66 17.0469 11.7969 17.0469H7.34378C6.48074 17.0469 5.78128 16.3475 5.78128 15.4844C5.78128 14.6214 6.48074 13.9219 7.34378 13.9219H11.7969C12.66 13.9219 13.3594 14.6214 13.3594 15.4844ZM31.9212 20.2937L23.343 28.853C23.1608 29.0348 23.0262 29.2588 22.9514 29.5051L21.0831 35.6553C20.9177 36.2007 21.0621 36.793 21.4597 37.2008C21.7579 37.5062 22.1628 37.6722 22.5785 37.6722C22.7173 37.6722 22.8577 37.6536 22.9954 37.6152L29.3021 35.8684C29.5615 35.7963 29.798 35.6587 29.9888 35.4683L38.5493 26.9242C40.3767 25.0965 40.3767 22.1226 38.5493 20.2949C36.7216 18.4672 33.7476 18.4672 31.9212 20.2937ZM28.0717 32.9661L24.899 33.845L25.8274 30.7884L31.6157 25.0129L33.8258 27.223L28.0717 32.9661ZM36.3404 24.7132L36.0377 25.0154L33.8279 22.8056L34.1297 22.5047C34.7388 21.8953 35.7301 21.8953 36.3392 22.5047C36.9486 23.1138 36.9486 24.105 36.3404 24.7132Z" fill="white"/>
</svg>
